<?xml version="1.0" encoding="UTF-8"?>
<!DOCTYPE svg PUBLIC "-//W3C//DTD SVG 1.1//EN" "http://www.w3.org/Graphics/SVG/1.1/DTD/svg11.dtd">
<!-- Creator: CorelDRAW X8 -->
<svg xmlns="http://www.w3.org/2000/svg" xml:space="preserve" width="39.3172mm" height="22.9913mm" version="1.1" style="shape-rendering:geometricPrecision; text-rendering:geometricPrecision; image-rendering:optimizeQuality; fill-rule:evenodd; clip-rule:evenodd"
viewBox="0 0 3933 2300"
 xmlns:xlink="http://www.w3.org/1999/xlink">
 <defs>
  <style type="text/css">
   <![CDATA[
    .fil0 {fill:#FEFEFE;fill-rule:nonzero}
   ]]>
  </style>
 </defs>
 <g id="Ebene_x0020_1">
  <metadata id="CorelCorpID_0Corel-Layer"/>
  <polygon class="fil0" points="749,1122 792,1122 792,1212 859,1212 859,1122 902,1122 902,1341 859,1341 859,1250 792,1250 792,1341 749,1341 "/>
  <path class="fil0" d="M1035 1287l1 -4 0 -4 1 -4 0 -3 0 -8 0 -7 0 -8 0 -8 0 -3 -1 -4 0 -4 -1 -4 0 -2 -1 -2 -1 -2 -1 -1 -1 -2 -1 -2 -2 -1 -1 -2 -2 -1 -2 -1 -2 -1 -2 -1 -2 -1 -3 0 -2 -1 -3 0 -2 0 -3 1 -2 0 -3 1 -2 1 -2 1 -2 1 -1 1 -2 2 -1 1 -1 2 -2 2 0 2 -1 2 -1 2 -1 2 -1 7 0 8 -1 7 0 8 0 7 1 8 0 7 1 7 1 2 1 2 1 2 0 2 2 2 1 2 1 1 2 2 1 1 2 1 2 2 2 0 3 1 2 1 3 0 2 0 3 0 2 0 3 -1 2 -1 2 0 2 -2 2 -1 2 -1 1 -2 2 -1 1 -2 1 -1 1 -2 1 -2 1 -2 0 -2zm-91 9l-1 -5 -1 -4 -1 -4 0 -4 0 -10 0 -12 0 -12 0 -10 0 -4 1 -5 1 -4 1 -4 1 -5 2 -5 2 -5 3 -4 3 -5 3 -4 4 -3 4 -4 5 -3 5 -3 5 -2 5 -2 6 -1 6 -1 6 -1 6 0 6 0 6 1 6 1 6 1 5 2 5 2 5 3 4 3 4 4 4 3 3 4 3 5 3 4 2 5 2 5 2 5 0 4 1 4 1 5 0 4 0 10 1 12 -1 12 0 10 0 4 -1 4 -1 4 0 5 -2 5 -2 5 -2 4 -3 5 -3 4 -3 4 -4 4 -5 3 -4 3 -5 3 -5 2 -5 2 -6 2 -6 1 -6 1 -7 0 -6 0 -6 -1 -5 -1 -6 -2 -5 -2 -5 -2 -5 -3 -4 -3 -4 -3 -4 -4 -3 -4 -3 -4 -3 -5 -2 -4 -2 -5 -1 -5z"/>
  <polygon class="fil0" points="1114,1296 1113,1291 1113,1287 1112,1283 1112,1279 1111,1269 1111,1257 1111,1250 1111,1245 1111,1239 1112,1235 1112,1230 1113,1226 1113,1222 1114,1217 1116,1212 1117,1207 1120,1203 1122,1198 1125,1194 1128,1190 1131,1186 1135,1183 1139,1180 1144,1177 1149,1175 1154,1173 1159,1172 1165,1171 1171,1170 1177,1170 1183,1170 1189,1170 1194,1171 1199,1172 1204,1174 1209,1176 1213,1178 1217,1180 1221,1183 1225,1187 1228,1190 1231,1194 1233,1199 1235,1204 1237,1209 1239,1214 1239,1220 1240,1225 1240,1231 1241,1236 1241,1241 1200,1241 1200,1239 1200,1235 1200,1233 1200,1230 1200,1228 1199,1226 1199,1223 1198,1221 1197,1219 1196,1216 1195,1215 1194,1213 1192,1212 1191,1210 1189,1209 1187,1208 1185,1208 1183,1207 1181,1207 1179,1206 1176,1206 1174,1206 1171,1207 1169,1207 1167,1208 1165,1209 1163,1210 1162,1211 1160,1212 1159,1214 1158,1215 1157,1217 1156,1220 1155,1222 1154,1224 1154,1227 1153,1229 1153,1235 1152,1241 1152,1249 1152,1257 1152,1264 1152,1271 1153,1277 1153,1283 1154,1285 1154,1288 1155,1290 1156,1293 1157,1295 1159,1297 1160,1299 1161,1300 1163,1302 1165,1303 1167,1304 1169,1305 1171,1306 1174,1307 1176,1307 1179,1307 1182,1307 1185,1307 1188,1306 1190,1305 1192,1304 1195,1303 1197,1302 1199,1300 1201,1299 1203,1297 1205,1295 1206,1293 1209,1289 1212,1285 1240,1311 1237,1315 1234,1319 1232,1322 1228,1325 1225,1329 1221,1331 1217,1334 1214,1336 1210,1338 1206,1339 1201,1341 1197,1342 1192,1343 1188,1344 1183,1344 1179,1344 1172,1344 1166,1343 1160,1342 1154,1340 1149,1339 1144,1336 1140,1334 1135,1331 1131,1327 1128,1323 1125,1319 1122,1315 1120,1311 1117,1306 1116,1301 "/>
  <polygon class="fil0" points="1316,1341 1275,1341 1275,1110 1316,1110 1316,1184 1319,1181 1322,1178 1326,1176 1330,1174 1332,1173 1335,1172 1337,1171 1339,1171 1342,1170 1345,1170 1347,1170 1350,1170 1354,1170 1357,1170 1360,1170 1362,1171 1365,1171 1368,1172 1371,1173 1373,1174 1376,1175 1378,1176 1380,1177 1383,1179 1385,1180 1387,1182 1389,1184 1391,1185 1392,1187 1394,1189 1395,1191 1397,1194 1398,1196 1399,1198 1400,1201 1401,1203 1402,1206 1403,1209 1404,1212 1404,1215 1405,1221 1405,1227 1405,1341 1364,1341 1364,1232 1364,1229 1363,1227 1363,1224 1362,1222 1361,1220 1360,1217 1359,1216 1358,1214 1356,1212 1354,1211 1352,1210 1350,1209 1348,1208 1346,1208 1343,1208 1340,1208 1337,1208 1335,1208 1333,1208 1330,1209 1328,1210 1326,1211 1324,1212 1323,1214 1321,1216 1320,1217 1319,1220 1318,1222 1317,1224 1316,1227 1316,1229 1316,1232 "/>
  <polygon class="fil0" points="1516,1244 1521,1246 1525,1247 1529,1249 1533,1251 1537,1253 1540,1256 1543,1258 1546,1261 1549,1264 1551,1267 1553,1270 1555,1274 1556,1279 1557,1283 1558,1288 1558,1294 1558,1297 1558,1300 1558,1302 1557,1305 1557,1307 1556,1310 1555,1312 1554,1314 1553,1317 1552,1319 1550,1321 1549,1323 1547,1325 1546,1327 1544,1329 1542,1330 1538,1333 1533,1336 1529,1338 1523,1340 1518,1342 1512,1343 1506,1344 1500,1344 1494,1344 1488,1344 1483,1343 1478,1342 1473,1340 1468,1339 1464,1337 1460,1335 1456,1332 1452,1330 1448,1326 1445,1323 1443,1320 1440,1316 1438,1313 1436,1309 1465,1284 1468,1289 1472,1294 1474,1296 1475,1297 1478,1299 1480,1301 1482,1302 1484,1303 1486,1305 1489,1305 1492,1306 1494,1307 1497,1307 1500,1307 1504,1307 1506,1306 1509,1305 1511,1304 1512,1303 1513,1302 1514,1301 1515,1300 1515,1299 1516,1298 1516,1297 1516,1295 1516,1294 1516,1292 1516,1290 1515,1289 1514,1288 1514,1287 1512,1286 1511,1285 1509,1283 1505,1282 1501,1280 1496,1278 1483,1273 1477,1271 1472,1269 1468,1266 1463,1264 1460,1261 1456,1259 1454,1256 1451,1253 1449,1249 1447,1246 1445,1243 1444,1239 1443,1235 1443,1230 1442,1226 1442,1221 1442,1219 1442,1216 1443,1213 1443,1211 1444,1208 1445,1206 1445,1203 1446,1201 1447,1198 1449,1196 1450,1194 1452,1192 1453,1190 1455,1188 1457,1186 1458,1184 1462,1181 1467,1178 1472,1176 1477,1174 1482,1172 1488,1171 1494,1170 1500,1170 1507,1170 1514,1171 1517,1171 1520,1172 1523,1172 1526,1173 1529,1174 1531,1175 1534,1177 1536,1178 1538,1179 1540,1181 1542,1182 1544,1184 1546,1186 1547,1188 1549,1189 1550,1191 1551,1194 1552,1196 1553,1198 1554,1200 1556,1205 1557,1211 1557,1216 1558,1222 1558,1224 1558,1226 1557,1228 1557,1230 1516,1230 1516,1227 1516,1225 1516,1222 1516,1220 1516,1217 1515,1215 1514,1214 1513,1212 1512,1211 1511,1210 1510,1209 1508,1208 1507,1207 1506,1207 1503,1206 1499,1206 1497,1206 1496,1207 1494,1207 1492,1207 1491,1208 1490,1209 1488,1210 1487,1211 1486,1212 1485,1213 1485,1214 1484,1215 1483,1218 1483,1221 1483,1222 1484,1224 1484,1225 1484,1227 1485,1228 1486,1229 1487,1230 1489,1232 1491,1234 1495,1236 1499,1237 1504,1239 "/>
  <polygon class="fil0" points="1594,1296 1593,1291 1592,1287 1591,1283 1591,1279 1591,1269 1590,1257 1590,1250 1591,1245 1591,1239 1591,1235 1591,1230 1592,1226 1593,1222 1594,1217 1595,1212 1597,1207 1599,1203 1602,1198 1604,1194 1607,1190 1611,1186 1615,1183 1619,1180 1623,1177 1628,1175 1633,1173 1639,1172 1644,1171 1650,1170 1657,1170 1663,1170 1668,1170 1674,1171 1679,1172 1684,1174 1688,1176 1693,1178 1697,1180 1701,1183 1704,1187 1707,1190 1710,1194 1713,1199 1715,1204 1716,1209 1718,1214 1719,1220 1719,1225 1720,1231 1720,1236 1720,1241 1679,1241 1679,1239 1679,1235 1679,1233 1679,1230 1679,1228 1679,1226 1678,1223 1677,1221 1677,1219 1676,1216 1675,1215 1673,1213 1672,1212 1670,1210 1669,1209 1667,1208 1665,1208 1663,1207 1660,1207 1658,1206 1656,1206 1653,1206 1651,1207 1648,1207 1646,1208 1644,1209 1643,1210 1641,1211 1640,1212 1638,1214 1637,1215 1636,1217 1635,1220 1634,1222 1634,1224 1633,1227 1632,1229 1632,1235 1632,1241 1632,1249 1632,1257 1632,1264 1632,1271 1632,1277 1632,1283 1633,1285 1634,1288 1634,1290 1635,1293 1637,1295 1638,1297 1639,1299 1641,1300 1642,1302 1644,1303 1646,1304 1648,1305 1651,1306 1653,1307 1656,1307 1659,1307 1662,1307 1664,1307 1667,1306 1669,1305 1672,1304 1674,1303 1676,1302 1678,1300 1680,1299 1682,1297 1684,1295 1686,1293 1689,1289 1691,1285 1719,1311 1716,1315 1714,1319 1711,1322 1708,1325 1704,1329 1701,1331 1697,1334 1693,1336 1689,1338 1685,1339 1680,1341 1676,1342 1672,1343 1667,1344 1663,1344 1658,1344 1651,1344 1645,1343 1639,1342 1634,1340 1628,1339 1624,1336 1619,1334 1615,1331 1611,1327 1607,1323 1604,1319 1602,1315 1599,1311 1597,1306 1595,1301 "/>
  <polygon class="fil0" points="1793,1341 1752,1341 1752,1110 1793,1110 1793,1184 1797,1181 1800,1178 1804,1176 1808,1174 1810,1173 1812,1172 1815,1171 1817,1171 1820,1170 1823,1170 1825,1170 1828,1170 1831,1170 1834,1170 1837,1170 1840,1171 1843,1171 1846,1172 1848,1173 1851,1174 1853,1175 1856,1176 1858,1177 1860,1179 1862,1180 1864,1182 1866,1184 1868,1185 1870,1187 1872,1189 1873,1191 1875,1194 1876,1196 1877,1198 1878,1201 1879,1203 1880,1206 1881,1209 1881,1212 1882,1215 1883,1221 1883,1227 1883,1341 1841,1341 1841,1232 1841,1229 1841,1227 1841,1224 1840,1222 1839,1220 1838,1217 1837,1216 1836,1214 1834,1212 1832,1211 1830,1210 1828,1209 1826,1208 1823,1208 1821,1208 1818,1208 1815,1208 1813,1208 1810,1208 1808,1209 1806,1210 1804,1211 1802,1212 1800,1214 1799,1216 1798,1217 1796,1220 1795,1222 1794,1224 1794,1227 1794,1229 1793,1232 "/>
  <polygon class="fil0" points="2016,1325 2015,1327 2013,1329 2011,1331 2009,1333 2007,1335 2004,1337 2002,1338 1999,1339 1997,1340 1994,1342 1992,1342 1989,1343 1986,1344 1983,1344 1981,1344 1978,1344 1975,1344 1972,1344 1969,1344 1966,1343 1963,1343 1960,1342 1958,1341 1955,1340 1952,1339 1950,1338 1948,1336 1946,1335 1944,1333 1941,1332 1940,1330 1938,1328 1936,1326 1935,1324 1933,1322 1932,1320 1930,1318 1929,1315 1928,1313 1927,1310 1925,1305 1924,1299 1924,1293 1923,1286 1923,1173 1965,1173 1965,1282 1965,1285 1965,1287 1965,1290 1966,1292 1967,1294 1968,1296 1969,1298 1970,1300 1972,1301 1974,1303 1976,1304 1978,1305 1980,1306 1983,1306 1985,1307 1988,1307 1991,1307 1993,1306 1996,1306 1998,1305 2000,1304 2002,1303 2004,1301 2006,1300 2007,1298 2009,1296 2010,1294 2011,1292 2011,1290 2012,1287 2012,1285 2012,1282 2012,1173 2054,1173 2054,1341 2019,1341 "/>
  <polygon class="fil0" points="2140,1299 2141,1300 2142,1301 2144,1302 2145,1303 2147,1304 2149,1304 2151,1305 2154,1305 2157,1305 2160,1304 2162,1303 2164,1303 2164,1340 2160,1341 2156,1341 2150,1342 2146,1342 2142,1342 2138,1341 2134,1341 2130,1340 2127,1339 2123,1338 2120,1336 2117,1335 2114,1333 2112,1331 2109,1329 2107,1327 2105,1324 2104,1322 2102,1319 2100,1316 2099,1313 2099,1310 2098,1307 2097,1304 2097,1301 2096,1297 2096,1294 2096,1290 2096,1110 2138,1110 2138,1289 2138,1292 2138,1294 2139,1297 "/>
  <path class="fil0" d="M2228 1228l0 3 -1 3 0 3 0 3 50 0 0 -4 0 -3 -1 -3 0 -2 -1 -2 0 -3 -1 -2 -1 -2 -1 -2 -1 -2 -1 -2 -1 -1 -2 -1 -1 -1 -2 -1 -2 -1 -3 -1 -2 0 -2 -1 -3 0 -3 0 -2 1 -2 0 -2 1 -2 0 -2 1 -2 2 -2 1 -1 1 -1 2 -1 2 -1 2 -1 2 -1 2 0 3 -1 2zm87 -10l1 3 0 3 1 3 0 4 0 7 1 9 -1 5 0 7 0 6 0 8 -90 0 0 3 0 3 1 3 0 2 1 3 0 2 1 2 1 3 1 2 2 2 1 1 2 2 2 1 1 1 2 2 3 1 2 0 2 1 3 0 3 0 4 0 5 -1 2 0 2 -1 2 -1 3 -1 2 -1 2 -1 2 -2 2 -2 2 -2 2 -2 2 -3 2 -3 27 26 -3 4 -3 4 -3 3 -4 3 -3 3 -4 3 -4 2 -3 2 -5 2 -4 1 -4 1 -4 1 -4 1 -5 1 -4 0 -5 0 -6 0 -7 -1 -6 -1 -5 -2 -6 -2 -4 -2 -5 -3 -4 -3 -4 -3 -4 -4 -3 -4 -3 -4 -3 -5 -2 -4 -2 -5 -1 -5 -1 -5 -1 -4 0 -4 -1 -4 0 -10 0 -12 0 -12 0 -10 1 -4 0 -5 1 -4 1 -4 1 -5 2 -5 2 -5 3 -5 3 -4 3 -4 4 -4 3 -3 5 -3 4 -3 5 -2 5 -2 6 -1 6 -1 5 -1 7 0 6 0 6 1 6 1 5 1 5 2 5 2 4 3 4 3 4 4 4 3 3 4 2 5 3 4 2 5 2 5 1 5z"/>
  <polygon class="fil0" points="2477,1209 2477,1341 2436,1341 2436,1209 2417,1209 2417,1173 2436,1173 2436,1159 2437,1153 2437,1148 2438,1142 2440,1137 2442,1133 2444,1128 2447,1124 2450,1121 2453,1117 2457,1115 2461,1112 2466,1110 2470,1109 2475,1108 2480,1107 2486,1106 2492,1107 2497,1107 2502,1108 2507,1109 2511,1111 2515,1112 2518,1114 2522,1116 2509,1149 2507,1148 2505,1147 2503,1147 2501,1146 2499,1145 2497,1145 2494,1145 2492,1145 2490,1145 2489,1145 2487,1146 2486,1146 2485,1147 2484,1147 2482,1148 2481,1149 2481,1150 2480,1151 2479,1153 2479,1154 2478,1156 2478,1158 2478,1159 2477,1161 2477,1173 2511,1173 2511,1209 "/>
  <path class="fil0" d="M2615 1133l0 -2 0 -3 1 -2 1 -2 1 -2 1 -1 1 -2 2 -2 1 -1 2 -2 2 -1 2 -1 2 -1 3 0 2 -1 2 0 3 0 2 1 2 0 3 1 2 1 2 1 1 2 2 1 1 2 2 2 1 1 1 2 1 2 1 2 0 3 0 2 0 2 0 3 -1 2 -1 2 -1 2 -1 2 -2 2 -1 1 -2 2 -1 1 -2 2 -2 1 -3 0 -2 1 -2 1 -3 0 -2 0 -2 -1 -3 -1 -2 0 -2 -1 -2 -2 -2 -1 -1 -2 -2 -1 -1 -2 -1 -2 -1 -2 -1 -2 -1 -2 0 -3 0 -2zm-64 0l0 -2 1 -3 0 -2 1 -2 1 -2 1 -1 1 -2 2 -2 2 -1 1 -2 2 -1 2 -1 2 -1 3 0 2 -1 3 0 2 0 2 1 2 0 3 1 2 1 2 1 1 2 2 1 1 2 2 2 1 1 1 2 1 2 1 2 0 3 0 2 0 2 0 3 -1 2 -1 2 -1 2 -1 2 -2 2 -1 1 -2 2 -1 1 -2 2 -2 1 -3 0 -2 1 -2 1 -2 0 -3 0 -2 -1 -3 -1 -2 0 -2 -1 -2 -2 -1 -1 -2 -2 -2 -1 -1 -2 -1 -2 -1 -2 -1 -2 0 -2 -1 -3 0 -2zm83 192l-1 2 -3 2 -2 2 -2 2 -2 2 -2 2 -3 1 -2 1 -2 1 -3 2 -3 0 -3 1 -2 1 -3 0 -3 0 -3 0 -3 0 -3 0 -3 0 -3 -1 -3 0 -2 -1 -3 -1 -2 -1 -3 -1 -2 -1 -3 -2 -2 -1 -2 -2 -2 -1 -2 -2 -2 -2 -1 -2 -2 -2 -1 -2 -2 -2 -1 -2 -1 -3 -1 -2 -1 -3 -2 -5 -1 -6 -1 -6 0 -7 0 -113 41 0 0 109 0 3 0 2 1 3 1 2 1 2 1 2 1 2 1 2 2 1 1 2 2 1 2 1 3 1 2 0 3 1 3 0 2 0 3 -1 2 0 3 -1 2 -1 2 -1 2 -2 1 -1 2 -2 1 -2 1 -2 1 -2 1 -2 1 -3 0 -2 0 -3 0 -109 41 0 0 168 -34 0 -3 -16z"/>
  <polygon class="fil0" points="2757,1341 2715,1341 2715,1173 2750,1173 2753,1190 2754,1187 2756,1185 2758,1183 2760,1180 2762,1179 2764,1177 2766,1176 2768,1175 2771,1174 2773,1173 2775,1172 2778,1171 2780,1171 2783,1171 2785,1170 2788,1170 2790,1170 2794,1170 2798,1171 2803,1171 2803,1212 2795,1211 2789,1210 2785,1210 2781,1210 2778,1210 2776,1210 2773,1211 2771,1211 2769,1212 2767,1213 2765,1215 2763,1216 2762,1218 2761,1220 2759,1222 2759,1224 2758,1226 2757,1229 2757,1232 2757,1235 "/>
  <polygon class="fil0" points="2930,1162 2876,1162 2876,1122 3026,1122 3026,1162 2973,1162 2973,1341 2930,1341 "/>
  <path class="fil0" d="M3069 1228l0 3 0 3 -1 3 0 3 50 0 0 -4 0 -3 -1 -3 0 -2 0 -2 -1 -3 0 -2 -1 -2 -1 -2 -1 -2 -2 -2 -1 -1 -2 -1 -1 -1 -2 -1 -2 -1 -2 -1 -3 0 -2 -1 -3 0 -2 0 -3 1 -2 0 -2 1 -2 0 -2 1 -2 2 -1 1 -2 1 -1 2 -1 2 -1 2 -1 2 -1 2 0 3 -1 2zm87 -10l1 3 1 3 0 3 0 4 1 7 0 9 0 5 0 7 0 6 -1 8 -90 0 0 3 1 3 0 3 0 2 1 3 1 2 0 2 1 3 2 2 1 2 1 1 2 2 2 1 2 1 2 2 2 1 2 0 3 1 2 0 3 0 5 0 4 -1 2 0 3 -1 2 -1 2 -1 2 -1 2 -1 2 -2 2 -2 3 -2 2 -2 1 -3 2 -3 27 26 -3 4 -3 4 -3 3 -4 3 -3 3 -4 3 -4 2 -3 2 -4 2 -4 1 -5 1 -4 1 -4 1 -5 1 -4 0 -5 0 -6 0 -6 -1 -6 -1 -6 -2 -5 -2 -5 -2 -5 -3 -4 -3 -4 -3 -4 -4 -3 -4 -3 -4 -2 -5 -3 -4 -1 -5 -2 -5 -1 -5 0 -4 -1 -4 0 -4 -1 -10 0 -12 0 -12 1 -10 0 -4 1 -5 0 -4 1 -4 2 -5 1 -5 3 -5 2 -5 3 -4 3 -4 4 -4 4 -3 4 -3 5 -3 5 -2 5 -2 5 -1 6 -1 6 -1 6 0 6 0 6 1 6 1 5 1 5 2 5 2 4 3 4 3 4 4 4 3 3 4 3 5 2 4 2 5 2 5 1 5z"/>
  <polygon class="fil0" points="3194,1296 3193,1291 3193,1287 3192,1283 3192,1279 3191,1269 3191,1257 3191,1250 3191,1245 3191,1239 3192,1235 3192,1230 3193,1226 3193,1222 3194,1217 3196,1212 3197,1207 3200,1203 3202,1198 3205,1194 3208,1190 3212,1186 3215,1183 3219,1180 3224,1177 3229,1175 3234,1173 3239,1172 3245,1171 3251,1170 3257,1170 3263,1170 3269,1170 3274,1171 3279,1172 3284,1174 3289,1176 3293,1178 3297,1180 3301,1183 3305,1187 3308,1190 3311,1194 3313,1199 3315,1204 3317,1209 3318,1214 3319,1220 3320,1225 3320,1231 3320,1236 3320,1241 3280,1241 3280,1239 3280,1235 3280,1233 3280,1230 3280,1228 3279,1226 3279,1223 3278,1221 3277,1219 3276,1216 3275,1215 3274,1213 3272,1212 3271,1210 3269,1209 3267,1208 3265,1208 3263,1207 3261,1207 3259,1206 3256,1206 3254,1206 3251,1207 3249,1207 3247,1208 3245,1209 3243,1210 3242,1211 3240,1212 3239,1214 3238,1215 3237,1217 3236,1220 3235,1222 3234,1224 3233,1227 3233,1229 3232,1235 3232,1241 3232,1249 3232,1257 3232,1264 3232,1271 3232,1277 3233,1283 3233,1285 3234,1288 3235,1290 3236,1293 3237,1295 3238,1297 3240,1299 3241,1300 3243,1302 3245,1303 3247,1304 3249,1305 3251,1306 3254,1307 3256,1307 3259,1307 3262,1307 3265,1307 3267,1306 3270,1305 3273,1304 3275,1303 3277,1302 3279,1300 3281,1299 3283,1297 3285,1295 3286,1293 3289,1289 3292,1285 3319,1311 3317,1315 3314,1319 3311,1322 3308,1325 3305,1329 3301,1331 3298,1334 3293,1336 3289,1338 3285,1339 3281,1341 3277,1342 3272,1343 3268,1344 3263,1344 3258,1344 3252,1344 3246,1343 3240,1342 3234,1340 3229,1339 3224,1336 3219,1334 3215,1331 3212,1327 3208,1323 3205,1319 3202,1315 3200,1311 3197,1306 3196,1301 "/>
  <polygon class="fil0" points="3396,1341 3354,1341 3354,1110 3396,1110 3396,1184 3399,1181 3402,1178 3406,1176 3410,1174 3412,1173 3414,1172 3417,1171 3419,1171 3422,1170 3425,1170 3427,1170 3430,1170 3433,1170 3436,1170 3439,1170 3442,1171 3445,1171 3448,1172 3451,1173 3453,1174 3455,1175 3458,1176 3460,1177 3462,1179 3465,1180 3467,1182 3468,1184 3470,1185 3472,1187 3474,1189 3475,1191 3477,1194 3478,1196 3479,1198 3480,1201 3481,1203 3482,1206 3483,1209 3484,1212 3484,1215 3485,1221 3485,1227 3485,1341 3443,1341 3443,1232 3443,1229 3443,1227 3443,1224 3442,1222 3441,1220 3440,1217 3439,1216 3438,1214 3436,1212 3434,1211 3432,1210 3430,1209 3428,1208 3425,1208 3423,1208 3420,1208 3417,1208 3415,1208 3412,1208 3410,1209 3408,1210 3406,1211 3404,1212 3402,1214 3401,1216 3400,1217 3399,1220 3398,1222 3397,1224 3396,1227 3396,1229 3396,1232 "/>
  <polygon class="fil0" points="3568,1341 3527,1341 3527,1173 3562,1173 3564,1188 3566,1186 3568,1184 3570,1182 3572,1180 3574,1178 3576,1177 3578,1176 3581,1174 3583,1173 3586,1172 3588,1171 3591,1171 3594,1170 3597,1170 3600,1170 3603,1170 3606,1170 3609,1170 3612,1170 3615,1171 3618,1171 3620,1172 3623,1173 3625,1174 3628,1175 3630,1176 3633,1177 3635,1179 3637,1180 3639,1182 3641,1184 3643,1185 3645,1187 3646,1189 3648,1191 3649,1194 3650,1196 3651,1198 3653,1201 3654,1203 3655,1206 3655,1209 3656,1212 3657,1215 3657,1221 3658,1227 3658,1341 3616,1341 3616,1232 3616,1229 3616,1227 3615,1224 3614,1222 3614,1220 3613,1217 3611,1216 3610,1214 3608,1212 3607,1211 3605,1210 3602,1209 3600,1208 3598,1208 3595,1208 3592,1208 3590,1208 3587,1208 3585,1208 3583,1209 3580,1210 3578,1211 3576,1212 3575,1214 3573,1216 3572,1217 3571,1220 3570,1222 3569,1224 3569,1227 3568,1229 3568,1232 "/>
  <path class="fil0" d="M3701 1341l0 -168 42 0 0 168 -42 0zm-5 -210l0 -2 0 -3 1 -2 1 -2 1 -2 1 -2 2 -2 1 -2 2 -2 2 -1 2 -1 2 -1 3 -1 2 -1 3 0 2 -1 3 1 2 0 3 1 2 1 3 1 2 1 2 1 2 2 1 2 2 2 1 2 1 2 1 2 0 2 1 3 0 2 0 3 -1 2 0 3 -1 2 -1 2 -1 2 -2 2 -1 2 -2 2 -2 1 -2 2 -3 1 -2 1 -3 0 -2 1 -3 0 -2 0 -3 -1 -2 0 -3 -1 -2 -1 -2 -2 -2 -1 -2 -2 -1 -2 -2 -2 -1 -2 -1 -2 -1 -2 -1 -3 0 -2 0 -3z"/>
  <polygon class="fil0" points="3829,1276 3829,1341 3787,1341 3787,1110 3829,1110 3829,1237 3833,1237 3835,1237 3838,1237 3841,1237 3844,1236 3846,1235 3848,1235 3851,1234 3853,1233 3855,1232 3857,1231 3858,1229 3860,1228 3862,1226 3863,1225 3865,1223 3866,1221 3868,1217 3870,1213 3872,1209 3873,1204 3874,1199 3875,1194 3875,1189 3876,1183 3876,1181 3876,1178 3875,1176 3875,1173 3917,1173 3918,1176 3918,1179 3918,1182 3918,1185 3918,1191 3917,1197 3917,1203 3916,1209 3915,1214 3913,1220 3911,1225 3909,1230 3906,1235 3904,1240 3901,1244 3897,1248 3894,1252 3890,1256 3886,1260 3881,1263 3930,1341 3880,1341 3842,1275 3840,1276 3838,1276 3835,1276 3833,1276 "/>
  <polygon class="fil0" points="839,1670 838,1672 835,1675 833,1677 831,1679 829,1680 827,1682 825,1683 822,1685 820,1686 817,1687 814,1688 812,1688 809,1689 806,1689 803,1689 800,1689 797,1689 794,1689 791,1689 788,1688 785,1688 783,1687 780,1686 778,1685 775,1684 773,1683 770,1682 768,1680 766,1679 764,1677 762,1676 760,1674 759,1672 757,1670 756,1667 754,1665 753,1663 752,1661 751,1658 750,1655 748,1650 747,1644 746,1638 746,1632 746,1519 787,1519 787,1628 787,1630 788,1633 788,1635 789,1638 790,1640 791,1642 792,1644 793,1645 795,1647 796,1648 798,1649 801,1650 803,1651 805,1652 808,1652 811,1652 813,1652 816,1652 818,1651 821,1650 823,1649 825,1648 827,1647 828,1645 830,1644 831,1642 832,1640 833,1638 834,1635 835,1633 835,1630 835,1628 835,1519 876,1519 876,1686 842,1686 "/>
  <polygon class="fil0" points="961,1686 919,1686 919,1519 955,1519 957,1534 958,1531 960,1529 962,1527 964,1526 966,1524 968,1522 971,1521 973,1520 976,1519 978,1518 981,1517 984,1516 987,1516 989,1515 992,1515 995,1515 998,1515 1001,1515 1004,1516 1007,1516 1010,1517 1013,1517 1015,1518 1018,1519 1020,1520 1023,1521 1025,1523 1027,1524 1029,1526 1031,1527 1034,1529 1035,1531 1037,1533 1039,1535 1040,1537 1042,1539 1043,1541 1044,1544 1045,1546 1046,1549 1047,1552 1048,1554 1049,1557 1049,1560 1050,1566 1050,1572 1050,1686 1008,1686 1008,1578 1008,1575 1008,1572 1008,1569 1007,1567 1006,1565 1005,1563 1004,1561 1003,1559 1001,1558 999,1556 997,1555 995,1554 993,1554 990,1553 988,1553 985,1553 982,1553 980,1553 977,1554 975,1554 973,1555 971,1556 969,1558 967,1559 966,1561 965,1563 963,1565 963,1567 962,1569 961,1572 961,1575 961,1578 "/>
  <path class="fil0" d="M1182 1629l1 -3 0 -3 1 -3 0 -4 0 -7 0 -7 0 -8 0 -7 -1 -6 -1 -6 0 -3 -1 -3 -1 -2 -1 -2 -1 -2 -2 -2 -1 -2 -2 -2 -2 -1 -1 -1 -3 -1 -2 -1 -2 -1 -3 0 -2 -1 -3 0 -3 0 -2 1 -3 0 -2 1 -2 1 -2 1 -2 1 -2 1 -1 2 -2 2 -1 2 -1 2 -2 2 0 2 -1 3 -1 3 0 5 -1 7 0 7 0 8 0 7 0 8 1 6 0 6 1 2 1 3 0 2 2 3 1 2 1 2 2 1 1 2 2 1 2 2 2 1 2 1 2 1 3 0 2 1 3 0 3 0 2 -1 3 0 2 -1 2 -1 3 -1 1 -2 2 -1 2 -2 1 -1 2 -2 1 -2 1 -3 1 -2 1 -3 0 -2zm7 44l-4 3 -4 4 -2 1 -2 1 -3 2 -2 1 -3 1 -3 1 -2 1 -3 0 -3 1 -4 0 -3 0 -4 0 -5 0 -6 0 -5 -1 -5 -2 -4 -2 -5 -2 -4 -3 -4 -3 -4 -4 -3 -3 -3 -4 -3 -4 -2 -5 -2 -5 -2 -5 -1 -5 -1 -4 -1 -5 0 -4 0 -4 -1 -10 0 -12 0 -7 0 -5 0 -6 1 -4 0 -5 0 -4 1 -4 1 -4 1 -6 2 -5 2 -5 3 -4 2 -4 3 -4 4 -4 4 -3 4 -3 4 -3 5 -2 5 -2 5 -1 5 -1 5 -1 6 0 5 0 6 1 4 1 5 1 4 2 4 1 4 3 3 2 0 -71 41 0 0 231 -34 0 -2 -13z"/>
  <polygon class="fil0" points="1367,1686 1336,1549 1334,1542 1333,1535 1332,1527 1331,1520 1330,1512 1330,1505 1329,1498 1329,1492 1329,1467 1372,1467 1372,1492 1372,1496 1372,1502 1373,1508 1373,1514 1374,1520 1374,1527 1375,1533 1376,1539 1382,1570 1384,1579 1385,1588 1387,1596 1389,1604 1390,1612 1391,1619 1392,1625 1392,1630 1394,1630 1394,1624 1395,1618 1396,1612 1397,1606 1399,1600 1400,1594 1402,1588 1403,1583 1420,1516 1456,1516 1473,1578 1475,1585 1478,1592 1479,1600 1481,1607 1483,1614 1484,1620 1485,1627 1486,1632 1487,1632 1487,1627 1488,1620 1489,1614 1490,1606 1492,1598 1493,1590 1495,1581 1496,1572 1502,1539 1503,1533 1503,1527 1504,1520 1504,1514 1505,1508 1505,1502 1505,1496 1505,1492 1505,1467 1548,1467 1548,1492 1548,1498 1548,1505 1547,1512 1547,1519 1546,1527 1545,1535 1544,1542 1542,1549 1512,1686 1466,1686 1446,1617 1444,1610 1443,1603 1441,1597 1440,1592 1440,1587 1439,1583 1438,1579 1438,1575 1437,1575 1436,1579 1436,1583 1435,1587 1435,1592 1434,1597 1432,1603 1431,1610 1429,1617 1410,1686 "/>
  <path class="fil0" d="M1584 1686l0 -167 42 0 0 167 -42 0zm-5 -209l0 -3 1 -2 0 -3 1 -2 1 -2 1 -2 2 -2 2 -2 2 -1 1 -2 2 -1 3 -1 2 -1 3 0 2 -1 3 0 2 0 3 1 2 0 3 1 2 1 2 1 2 2 2 1 1 2 2 2 1 2 1 2 1 2 1 3 0 2 0 3 0 2 0 3 -1 2 -1 2 -1 3 -1 2 -2 2 -1 2 -2 1 -2 2 -2 1 -2 1 -3 1 -2 1 -3 0 -2 0 -3 0 -2 0 -3 -1 -2 -1 -3 -1 -2 -1 -1 -2 -2 -1 -2 -2 -2 -2 -1 -2 -1 -3 -1 -2 0 -2 -1 -3 0 -2z"/>
  <polygon class="fil0" points="1710,1686 1669,1686 1669,1519 1704,1519 1706,1535 1708,1532 1710,1530 1712,1528 1713,1526 1715,1524 1717,1522 1720,1521 1722,1520 1724,1519 1727,1518 1729,1517 1731,1517 1734,1516 1736,1516 1739,1516 1741,1516 1744,1516 1748,1516 1752,1516 1756,1517 1756,1557 1749,1556 1743,1555 1738,1555 1734,1555 1732,1555 1729,1556 1727,1556 1725,1557 1723,1558 1720,1559 1719,1560 1717,1561 1715,1563 1714,1565 1713,1567 1712,1569 1711,1572 1711,1575 1710,1577 1710,1580 "/>
  <polygon class="fil0" points="1840,1689 1835,1689 1830,1688 1825,1687 1820,1685 1816,1683 1812,1681 1808,1678 1805,1675 1802,1671 1799,1667 1797,1663 1795,1658 1793,1653 1792,1648 1791,1642 1791,1636 1791,1555 1773,1555 1773,1519 1791,1519 1791,1473 1832,1473 1832,1519 1873,1519 1873,1555 1832,1555 1832,1635 1832,1637 1833,1639 1833,1641 1834,1642 1834,1644 1835,1645 1836,1646 1837,1647 1838,1648 1839,1649 1840,1650 1841,1651 1843,1651 1844,1651 1846,1652 1848,1652 1850,1652 1852,1651 1854,1651 1856,1650 1859,1649 1861,1648 1863,1646 1865,1645 1877,1678 1873,1681 1870,1683 1866,1685 1862,1686 1857,1687 1852,1688 1846,1689 "/>
  <polygon class="fil0" points="1974,1589 1978,1591 1983,1593 1987,1595 1991,1596 1994,1599 1998,1601 2001,1603 2004,1606 2007,1609 2009,1612 2011,1616 2013,1620 2014,1624 2015,1629 2016,1634 2016,1640 2016,1642 2015,1645 2015,1647 2015,1650 2014,1653 2013,1655 2013,1657 2012,1660 2011,1662 2009,1664 2008,1666 2007,1668 2005,1670 2003,1672 2001,1674 2000,1676 1996,1679 1991,1681 1986,1684 1981,1686 1976,1687 1970,1689 1964,1689 1957,1689 1951,1689 1946,1689 1941,1688 1936,1687 1930,1686 1926,1684 1922,1682 1917,1680 1913,1677 1910,1675 1906,1672 1903,1669 1900,1665 1898,1662 1895,1658 1893,1654 1923,1630 1926,1634 1929,1639 1931,1641 1933,1643 1935,1644 1937,1646 1939,1647 1942,1649 1944,1650 1947,1651 1949,1651 1952,1652 1955,1652 1958,1652 1961,1652 1964,1652 1967,1651 1969,1650 1970,1649 1971,1648 1972,1647 1972,1646 1973,1645 1973,1643 1974,1642 1974,1641 1974,1639 1973,1637 1973,1636 1973,1635 1972,1633 1971,1632 1970,1631 1969,1631 1966,1629 1963,1627 1959,1625 1953,1624 1940,1619 1935,1617 1930,1614 1925,1612 1921,1609 1917,1607 1914,1604 1911,1601 1909,1598 1906,1595 1904,1591 1903,1588 1902,1584 1901,1580 1900,1576 1900,1571 1900,1567 1900,1564 1900,1561 1900,1558 1901,1556 1901,1553 1902,1551 1903,1548 1904,1546 1905,1544 1906,1542 1908,1539 1909,1537 1911,1535 1912,1533 1914,1531 1916,1530 1920,1527 1925,1523 1929,1521 1934,1519 1940,1517 1946,1516 1951,1515 1958,1515 1965,1515 1972,1516 1975,1516 1978,1517 1981,1518 1984,1519 1986,1520 1989,1521 1991,1522 1994,1523 1996,1524 1998,1526 2000,1528 2001,1529 2003,1531 2005,1533 2006,1535 2008,1537 2009,1539 2010,1541 2011,1543 2012,1546 2013,1551 2014,1556 2015,1561 2015,1567 2015,1569 2015,1571 2015,1573 2015,1575 1974,1575 1974,1573 1974,1570 1974,1567 1974,1565 1973,1563 1973,1561 1972,1559 1971,1557 1970,1556 1969,1555 1967,1554 1966,1553 1965,1553 1963,1552 1960,1552 1957,1552 1955,1552 1953,1552 1951,1552 1950,1553 1948,1553 1947,1554 1946,1555 1945,1556 1944,1557 1943,1558 1942,1559 1942,1561 1941,1564 1941,1566 1941,1568 1941,1569 1941,1571 1942,1572 1943,1573 1944,1575 1945,1576 1946,1577 1949,1579 1952,1581 1957,1583 1962,1585 "/>
  <polygon class="fil0" points="2051,1641 2050,1637 2050,1633 2049,1629 2049,1624 2048,1614 2048,1602 2048,1596 2048,1590 2048,1585 2049,1580 2049,1576 2050,1571 2050,1567 2051,1563 2053,1558 2055,1553 2057,1548 2059,1544 2062,1539 2065,1535 2069,1532 2072,1528 2076,1525 2081,1523 2086,1520 2091,1518 2096,1517 2102,1516 2108,1515 2114,1515 2120,1515 2126,1516 2131,1516 2136,1518 2141,1519 2146,1521 2150,1523 2155,1526 2158,1529 2162,1532 2165,1536 2168,1540 2170,1544 2172,1549 2174,1554 2175,1560 2176,1565 2177,1570 2178,1576 2178,1582 2178,1587 2137,1587 2137,1584 2137,1581 2137,1578 2137,1576 2137,1573 2136,1571 2136,1568 2135,1566 2134,1564 2133,1562 2132,1560 2131,1558 2129,1557 2128,1556 2126,1555 2124,1554 2122,1553 2120,1552 2118,1552 2116,1552 2113,1552 2111,1552 2108,1552 2106,1552 2104,1553 2102,1554 2100,1555 2099,1556 2097,1558 2096,1559 2095,1561 2094,1563 2093,1565 2092,1567 2091,1569 2091,1572 2090,1575 2089,1580 2089,1587 2089,1594 2089,1602 2089,1609 2089,1616 2089,1623 2090,1628 2091,1631 2092,1633 2092,1635 2093,1638 2094,1640 2095,1642 2097,1644 2098,1646 2100,1647 2102,1649 2104,1650 2106,1651 2108,1651 2111,1652 2113,1652 2116,1652 2119,1652 2122,1652 2125,1651 2127,1651 2130,1650 2132,1649 2134,1647 2136,1646 2138,1644 2140,1643 2142,1641 2143,1639 2146,1634 2149,1630 2176,1656 2174,1660 2171,1664 2168,1668 2165,1671 2162,1674 2158,1677 2155,1679 2151,1681 2147,1683 2142,1685 2138,1686 2134,1687 2129,1688 2125,1689 2120,1689 2115,1689 2109,1689 2103,1689 2097,1688 2091,1686 2086,1684 2081,1682 2077,1679 2072,1676 2069,1672 2065,1669 2062,1665 2059,1661 2057,1656 2055,1651 2053,1646 "/>
  <polygon class="fil0" points="2251,1686 2210,1686 2210,1455 2251,1455 2251,1529 2254,1527 2258,1524 2261,1521 2266,1519 2268,1518 2270,1517 2272,1517 2275,1516 2277,1516 2280,1515 2283,1515 2286,1515 2289,1515 2292,1515 2295,1516 2298,1516 2301,1517 2303,1517 2306,1518 2309,1519 2311,1520 2314,1521 2316,1523 2318,1524 2320,1526 2322,1527 2324,1529 2326,1531 2328,1533 2329,1535 2331,1537 2332,1539 2333,1541 2335,1544 2336,1546 2337,1549 2338,1552 2339,1554 2339,1557 2340,1560 2340,1566 2341,1572 2341,1686 2299,1686 2299,1578 2299,1575 2299,1572 2298,1569 2298,1567 2297,1565 2296,1563 2294,1561 2293,1559 2292,1558 2290,1556 2288,1555 2286,1554 2283,1554 2281,1553 2278,1553 2275,1553 2273,1553 2270,1553 2268,1554 2266,1554 2264,1555 2261,1556 2260,1558 2258,1559 2256,1561 2255,1563 2254,1565 2253,1567 2252,1569 2252,1572 2251,1575 2251,1578 "/>
  <path class="fil0" d="M2450 1652l2 0 2 -1 2 -2 2 -2 1 -2 1 -2 1 -3 0 -2 0 -3 -1 -3 -1 -2 -1 -2 -2 -2 -1 -2 -2 -1 -2 -1 -3 0 -4 -1 -4 0 -4 0 -4 0 -3 0 -4 1 -3 0 -2 1 -2 1 -2 2 -1 2 -1 2 -1 2 -1 3 0 3 0 2 1 3 1 2 1 2 2 2 1 2 2 1 2 0 4 1 3 0 4 0 3 0 4 0 4 0 4 0 2 -1zm-20 36l-7 -1 -6 0 -5 -1 -6 -1 -3 -2 -4 -1 -4 -2 -3 -2 -3 -2 -2 -2 -3 -3 -2 -3 -2 -3 -2 -4 -1 -3 -2 -4 -1 -4 -1 -4 0 -5 0 -4 0 -5 1 -4 1 -4 1 -4 1 -4 2 -3 2 -3 2 -3 2 -3 3 -2 3 -2 3 -3 3 -1 3 -2 3 -1 3 -1 6 -2 6 0 7 -1 8 0 3 0 4 0 3 1 3 0 4 1 2 1 3 0 2 1 0 -20 0 -3 0 -2 -1 -2 0 -2 -1 -2 -1 -2 -1 -1 -1 -2 -2 -1 -1 -1 -2 -1 -2 -1 -2 -1 -2 0 -3 0 -2 0 -2 0 -2 0 -2 0 -2 1 -2 0 -2 1 -2 1 -1 1 -2 1 -1 2 -2 2 -1 2 -2 2 -1 2 -2 3 -1 2 -32 -20 2 -5 3 -4 3 -4 3 -4 2 -3 4 -3 3 -3 4 -2 3 -2 4 -2 5 -2 4 -1 5 -1 5 0 5 -1 6 0 4 0 3 0 4 1 3 0 3 1 3 1 3 0 3 1 3 2 2 1 3 1 2 2 3 2 2 1 2 2 2 2 2 2 2 2 1 2 2 2 1 2 2 3 1 2 1 3 1 2 1 3 0 2 1 3 0 3 1 3 0 2 0 3 0 115 -33 0 -1 -12 -3 3 -3 2 -3 2 -2 2 -4 1 -3 1 -4 1 -4 1 -4 0 -5 1z"/>
  <polygon class="fil0" points="2590,1555 2590,1686 2549,1686 2549,1555 2530,1555 2530,1519 2549,1519 2549,1505 2549,1498 2550,1493 2551,1487 2553,1482 2555,1478 2557,1473 2560,1470 2563,1466 2566,1463 2570,1460 2574,1458 2578,1456 2583,1454 2588,1453 2593,1452 2599,1452 2605,1452 2610,1453 2615,1454 2619,1455 2624,1456 2628,1457 2631,1459 2635,1461 2622,1495 2620,1493 2618,1493 2616,1492 2614,1491 2612,1491 2610,1490 2607,1490 2605,1490 2603,1490 2602,1491 2600,1491 2599,1491 2598,1492 2597,1493 2595,1493 2594,1494 2593,1496 2593,1497 2592,1498 2591,1500 2591,1501 2591,1503 2590,1505 2590,1507 2590,1519 2624,1519 2624,1555 "/>
  <polygon class="fil0" points="2709,1689 2704,1689 2699,1688 2694,1687 2690,1685 2685,1683 2681,1681 2678,1678 2674,1675 2671,1671 2668,1667 2666,1663 2664,1658 2663,1653 2662,1648 2661,1642 2661,1636 2661,1555 2642,1555 2642,1519 2661,1519 2661,1473 2702,1473 2702,1519 2742,1519 2742,1555 2702,1555 2702,1635 2702,1637 2702,1639 2702,1641 2703,1642 2703,1644 2704,1645 2705,1646 2706,1647 2707,1648 2708,1649 2709,1650 2711,1651 2712,1651 2714,1651 2715,1652 2717,1652 2719,1652 2722,1651 2724,1651 2726,1650 2728,1649 2730,1648 2732,1646 2734,1645 2746,1678 2743,1681 2739,1683 2735,1685 2731,1686 2726,1687 2721,1688 2715,1689 "/>
  <path class="fil0" d="M2892 1597l0 50 29 0 3 0 2 -1 3 0 2 -1 2 -1 2 -1 2 -2 2 -1 1 -2 2 -2 1 -2 1 -3 0 -2 1 -2 0 -3 0 -3 0 -2 0 -3 -1 -2 0 -2 -1 -3 -1 -2 -2 -2 -1 -1 -2 -2 -2 -1 -2 -1 -2 -2 -2 0 -3 -1 -2 0 -3 0 -29 0zm0 -91l0 54 24 0 3 0 3 0 2 -1 3 -1 2 -1 3 -1 2 -2 1 -1 2 -2 2 -2 1 -3 1 -2 1 -3 1 -2 0 -3 0 -3 0 -3 0 -3 -1 -2 -1 -3 -1 -2 -1 -2 -2 -2 -2 -2 -1 -2 -2 -2 -3 -1 -2 -1 -3 -1 -2 -1 -3 0 -3 0 -24 0zm-43 180l0 -219 70 0 4 0 3 1 4 0 3 1 4 0 3 1 3 1 3 1 3 1 3 1 3 1 3 2 2 2 2 2 3 1 2 2 2 2 2 3 2 2 2 3 2 2 1 3 2 3 1 2 1 3 1 3 1 4 0 3 1 3 0 4 1 3 0 4 0 3 -1 3 0 3 -1 3 0 3 -1 3 -1 3 -2 3 -1 2 -2 3 -2 3 -2 3 -3 2 -3 3 -2 2 -4 3 4 2 3 3 3 2 3 3 2 3 3 3 2 3 1 3 2 3 1 3 1 3 1 3 0 4 1 3 0 3 0 3 0 4 0 3 0 4 -1 3 -1 3 0 3 -1 3 -1 4 -1 2 -2 3 -1 3 -2 2 -1 3 -2 2 -2 2 -2 2 -2 2 -3 2 -2 2 -3 2 -2 1 -3 1 -3 2 -3 1 -3 1 -3 1 -3 0 -3 1 -3 1 -4 0 -3 0 -4 0 -75 0z"/>
  <path class="fil0" d="M3061 1573l-1 3 0 3 0 3 0 3 49 0 0 -4 0 -3 0 -3 -1 -2 0 -2 -1 -2 0 -3 -1 -2 -1 -2 -1 -2 -1 -1 -2 -2 -1 -1 -2 -1 -2 -1 -2 -1 -2 -1 -2 0 -3 0 -2 0 -3 0 -2 0 -3 0 -2 1 -2 1 -2 1 -1 1 -2 1 -1 2 -2 1 -1 2 -1 2 -1 2 0 3 -1 2 0 2zm87 -9l1 6 1 6 0 7 0 9 0 6 0 6 0 7 0 7 -90 0 0 3 0 3 0 3 1 3 0 2 1 3 1 2 1 2 1 2 1 2 2 2 1 1 2 2 2 1 2 1 2 1 2 0 3 1 3 0 3 0 4 0 4 0 3 -1 2 0 2 -1 2 -1 2 -2 2 -1 3 -2 2 -1 2 -2 2 -3 2 -3 1 -3 27 26 -3 4 -3 4 -3 3 -3 3 -4 3 -3 3 -4 2 -4 2 -4 2 -4 2 -4 1 -5 1 -4 1 -4 0 -5 0 -4 0 -7 0 -6 0 -6 -2 -6 -1 -5 -2 -5 -3 -5 -2 -4 -3 -4 -4 -3 -3 -4 -4 -2 -5 -3 -4 -2 -5 -2 -5 -2 -5 -1 -4 0 -4 -1 -4 0 -5 0 -10 -1 -12 1 -12 0 -10 0 -4 1 -4 0 -4 1 -4 2 -6 2 -5 2 -5 3 -4 2 -4 4 -5 3 -3 4 -4 4 -2 5 -3 5 -3 5 -2 5 -1 6 -1 6 -1 6 0 7 0 5 1 6 1 5 2 6 1 4 3 5 3 4 3 3 3 4 4 3 4 3 4 2 4 2 5 2 5 2 6z"/>
  <polygon class="fil0" points="3227,1686 3186,1686 3186,1519 3221,1519 3223,1535 3225,1532 3227,1530 3229,1528 3231,1526 3232,1524 3235,1522 3237,1521 3239,1520 3241,1519 3244,1518 3246,1517 3248,1517 3251,1516 3253,1516 3256,1516 3258,1516 3261,1516 3265,1516 3269,1516 3273,1517 3273,1557 3266,1556 3260,1555 3255,1555 3251,1555 3249,1555 3246,1556 3244,1556 3242,1557 3240,1558 3238,1559 3236,1560 3234,1561 3233,1563 3231,1565 3230,1567 3229,1569 3228,1572 3228,1575 3227,1577 3227,1580 "/>
  <polygon class="fil0" points="3344,1644 3345,1645 3347,1646 3348,1647 3350,1649 3351,1649 3353,1650 3356,1650 3358,1650 3361,1650 3364,1649 3367,1649 3369,1648 3369,1686 3365,1686 3360,1687 3355,1687 3350,1687 3346,1687 3342,1687 3338,1686 3335,1685 3331,1684 3328,1683 3325,1682 3322,1680 3319,1678 3316,1676 3314,1674 3312,1672 3310,1670 3308,1667 3306,1664 3305,1661 3304,1658 3303,1655 3302,1652 3302,1649 3301,1646 3301,1643 3301,1639 3301,1636 3301,1455 3342,1455 3342,1635 3342,1637 3343,1640 3343,1642 "/>
  <path class="fil0" d="M3398 1686l0 -167 41 0 0 167 -41 0zm-5 -209l0 -3 0 -2 1 -3 1 -2 1 -2 1 -2 1 -2 2 -2 2 -1 2 -2 2 -1 2 -1 2 -1 3 0 2 -1 3 0 3 0 2 1 3 0 2 1 2 1 2 1 2 2 2 1 2 2 1 2 1 2 2 2 0 2 1 3 0 2 0 3 0 2 0 3 -1 2 0 2 -2 3 -1 2 -1 2 -2 2 -2 1 -2 2 -2 1 -2 1 -2 1 -3 1 -2 0 -3 0 -3 0 -2 0 -3 -1 -2 -1 -2 -1 -2 -1 -2 -2 -2 -1 -2 -2 -1 -2 -1 -2 -1 -3 -1 -2 -1 -2 0 -3 0 -2z"/>
  <polygon class="fil0" points="3524,1686 3483,1686 3483,1519 3517,1519 3520,1534 3521,1531 3523,1529 3525,1527 3527,1526 3529,1524 3532,1522 3534,1521 3536,1520 3539,1519 3541,1518 3544,1517 3547,1516 3549,1516 3552,1515 3555,1515 3558,1515 3561,1515 3564,1515 3567,1516 3570,1516 3573,1517 3576,1517 3578,1518 3581,1519 3583,1520 3586,1521 3588,1523 3590,1524 3593,1526 3595,1527 3596,1529 3598,1531 3600,1533 3602,1535 3603,1537 3605,1539 3606,1541 3607,1544 3608,1546 3609,1549 3610,1552 3611,1554 3611,1557 3612,1560 3613,1566 3613,1572 3613,1686 3572,1686 3572,1578 3571,1575 3571,1572 3571,1569 3570,1567 3569,1565 3568,1563 3567,1561 3565,1559 3564,1558 3562,1556 3560,1555 3558,1554 3556,1554 3553,1553 3551,1553 3548,1553 3545,1553 3543,1553 3540,1554 3538,1554 3536,1555 3534,1556 3532,1558 3531,1559 3529,1561 3527,1563 3526,1565 3525,1567 3525,1569 3524,1572 3524,1575 3524,1578 "/>
  <polygon class="fil0" points="841,2080 874,2080 874,2169 874,2179 873,2187 873,2195 872,2201 872,2206 871,2211 870,2215 868,2219 867,2223 865,2227 862,2230 860,2233 857,2236 854,2239 851,2242 847,2244 844,2246 840,2248 836,2249 831,2250 827,2251 822,2252 817,2253 811,2253 806,2253 801,2252 796,2251 791,2250 787,2249 783,2248 779,2246 775,2244 772,2242 768,2239 765,2236 763,2233 760,2230 758,2227 756,2223 755,2219 753,2215 752,2211 751,2206 750,2201 749,2195 749,2187 749,2179 749,2169 749,2080 782,2080 782,2170 782,2184 782,2192 783,2197 783,2202 784,2204 785,2206 786,2208 787,2210 788,2211 789,2213 791,2215 792,2216 794,2217 796,2218 798,2219 800,2220 803,2221 806,2221 808,2221 811,2222 814,2221 817,2221 820,2221 822,2220 825,2219 827,2218 829,2217 830,2216 832,2215 833,2213 835,2212 836,2210 837,2208 838,2206 838,2204 839,2202 840,2198 840,2192 841,2184 841,2170 "/>
  <polygon class="fil0" points="939,2250 907,2250 907,2120 934,2120 936,2131 937,2130 939,2128 940,2126 942,2125 943,2124 945,2122 947,2121 949,2120 953,2119 957,2118 961,2117 966,2117 970,2117 975,2118 979,2119 983,2120 987,2122 991,2124 994,2126 997,2129 1000,2132 1002,2135 1004,2139 1005,2143 1007,2147 1008,2152 1008,2156 1008,2161 1008,2250 976,2250 976,2166 976,2163 976,2161 976,2159 975,2157 974,2156 974,2154 973,2153 971,2151 970,2150 969,2149 967,2148 966,2147 964,2147 962,2146 960,2146 958,2146 956,2146 954,2146 952,2147 950,2147 949,2148 947,2149 945,2150 944,2151 943,2153 942,2154 941,2156 940,2157 940,2159 939,2161 939,2163 939,2166 "/>
  <path class="fil0" d="M1040 2250l0 -130 32 0 0 130 -32 0zm-4 -163l0 -2 0 -2 1 -2 0 -1 1 -2 1 -2 1 -1 1 -2 2 -1 1 -1 2 -1 2 -1 2 0 1 -1 2 0 2 0 2 0 3 0 1 1 2 0 2 1 1 1 2 1 1 1 2 2 1 1 1 2 1 2 0 1 1 2 0 2 0 2 0 2 0 2 -1 2 0 2 -1 1 -1 2 -1 1 -2 2 -1 1 -2 1 -1 1 -2 1 -2 1 -1 0 -3 1 -2 0 -2 0 -2 -1 -1 0 -2 -1 -2 -1 -2 -1 -1 -1 -2 -1 -1 -2 -1 -1 -1 -2 -1 -1 0 -2 -1 -2 0 -2 0 -2z"/>
  <polygon class="fil0" points="1136,2250 1132,2242 1128,2233 1124,2224 1120,2215 1116,2206 1113,2197 1109,2188 1106,2180 1104,2175 1102,2170 1101,2164 1100,2158 1099,2153 1098,2148 1098,2143 1098,2137 1098,2120 1129,2120 1129,2137 1129,2141 1130,2145 1130,2149 1131,2154 1132,2159 1133,2163 1134,2168 1136,2173 1137,2178 1139,2183 1142,2189 1144,2195 1146,2201 1148,2208 1150,2216 1152,2223 1153,2223 1154,2216 1156,2208 1159,2201 1161,2195 1163,2189 1165,2183 1167,2178 1169,2173 1170,2169 1171,2164 1173,2159 1173,2155 1174,2150 1175,2145 1175,2141 1175,2137 1175,2120 1207,2120 1207,2137 1207,2143 1207,2148 1206,2153 1205,2159 1204,2164 1202,2170 1201,2175 1199,2180 1196,2188 1192,2197 1189,2206 1185,2215 1180,2224 1176,2233 1172,2242 1169,2250 "/>
  <path class="fil0" d="M1260 2162l0 2 -1 3 0 2 0 2 39 0 0 -3 0 -2 -1 -2 0 -2 -1 -3 -1 -4 0 -1 -1 -2 -1 -1 -2 -1 -1 -1 -1 -1 -1 -1 -2 -1 -2 0 -1 -1 -2 0 -2 0 -2 0 -2 0 -2 1 -2 0 -1 1 -2 1 -1 1 -1 1 -1 1 -1 1 -1 2 -1 1 -1 3 -1 4zm68 -7l1 4 0 5 1 6 0 7 0 4 0 5 0 5 -1 6 -70 0 0 2 0 3 1 2 0 2 0 2 1 2 1 2 0 1 1 2 1 1 1 2 2 1 1 1 2 1 1 1 2 0 2 1 1 0 2 0 3 1 3 -1 4 0 3 -1 4 -1 1 -1 2 -1 2 -1 1 -2 2 -1 1 -2 2 -3 1 -2 21 20 -2 3 -2 3 -3 3 -3 2 -2 3 -3 2 -3 1 -3 2 -3 1 -3 1 -4 1 -3 1 -3 1 -4 0 -3 1 -4 0 -5 -1 -5 0 -4 -1 -5 -1 -4 -2 -4 -2 -3 -2 -4 -2 -3 -3 -3 -3 -2 -3 -2 -3 -2 -3 -2 -4 -1 -4 -2 -4 0 -3 -1 -4 0 -3 -1 -3 0 -8 0 -10 0 -9 0 -7 1 -4 0 -3 1 -3 0 -3 2 -5 1 -4 2 -3 2 -4 2 -3 2 -3 3 -3 3 -3 4 -2 3 -2 4 -2 4 -1 4 -2 5 0 4 -1 5 0 5 0 5 1 4 0 4 2 4 1 4 2 3 2 3 2 3 3 3 3 3 3 2 3 2 4 1 4 2 3 1 5z"/>
  <polygon class="fil0" points="1388,2250 1356,2250 1356,2120 1383,2120 1385,2132 1386,2130 1388,2129 1389,2127 1391,2125 1392,2124 1394,2123 1396,2122 1397,2121 1401,2119 1405,2118 1409,2118 1412,2117 1415,2117 1417,2117 1420,2118 1424,2118 1424,2149 1418,2149 1414,2148 1410,2148 1407,2148 1405,2148 1403,2148 1401,2149 1399,2149 1398,2150 1396,2151 1395,2152 1394,2153 1392,2154 1391,2156 1391,2157 1390,2159 1389,2161 1389,2163 1388,2165 1388,2168 "/>
  <polygon class="fil0" points="1498,2175 1505,2177 1511,2180 1514,2182 1516,2184 1519,2185 1521,2188 1523,2190 1525,2192 1527,2195 1528,2198 1529,2201 1530,2205 1530,2209 1530,2214 1530,2218 1530,2222 1528,2226 1527,2229 1525,2233 1523,2236 1520,2239 1518,2242 1515,2244 1511,2246 1507,2248 1503,2250 1499,2251 1494,2252 1490,2252 1485,2253 1480,2253 1476,2252 1472,2252 1468,2251 1464,2249 1460,2248 1457,2247 1454,2245 1450,2243 1448,2241 1445,2239 1443,2236 1440,2234 1438,2231 1436,2228 1435,2225 1458,2206 1460,2210 1463,2213 1466,2216 1469,2219 1471,2220 1473,2221 1474,2222 1477,2222 1479,2223 1481,2223 1483,2223 1485,2224 1488,2223 1490,2223 1492,2222 1494,2221 1495,2220 1496,2219 1497,2218 1497,2217 1497,2216 1497,2215 1497,2212 1497,2210 1496,2209 1495,2208 1495,2207 1494,2207 1492,2205 1489,2204 1486,2203 1482,2201 1472,2198 1467,2196 1463,2194 1460,2192 1457,2190 1454,2188 1451,2186 1449,2184 1447,2181 1445,2179 1444,2176 1442,2173 1442,2170 1441,2167 1440,2164 1440,2161 1440,2157 1440,2153 1441,2149 1442,2145 1443,2141 1445,2137 1447,2134 1450,2131 1453,2128 1456,2126 1459,2123 1463,2121 1467,2120 1471,2119 1475,2118 1480,2117 1485,2117 1491,2117 1496,2118 1501,2118 1505,2120 1509,2121 1513,2123 1516,2125 1519,2128 1522,2131 1524,2134 1526,2137 1527,2141 1528,2145 1529,2149 1530,2153 1530,2157 1530,2160 1530,2164 1497,2164 1498,2162 1498,2160 1498,2158 1497,2156 1497,2154 1497,2152 1496,2151 1495,2150 1494,2149 1494,2148 1493,2147 1492,2147 1491,2146 1489,2146 1487,2145 1484,2145 1483,2145 1482,2145 1480,2146 1479,2146 1477,2147 1475,2149 1474,2150 1473,2153 1472,2155 1472,2157 1472,2158 1472,2159 1472,2160 1473,2161 1474,2163 1476,2165 1478,2167 1481,2168 1484,2170 1488,2171 "/>
  <path class="fil0" d="M1557 2250l0 -130 33 0 0 130 -33 0zm-4 -163l0 -2 1 -2 0 -2 1 -1 1 -2 1 -2 1 -1 1 -2 1 -1 2 -1 2 -1 1 -1 2 0 2 -1 2 0 2 0 2 0 2 0 2 1 2 0 2 1 1 1 2 1 1 1 1 2 2 1 1 2 0 2 1 1 1 2 0 2 0 2 0 2 0 2 -1 2 -1 2 0 1 -1 2 -2 1 -1 2 -1 1 -2 1 -1 1 -2 1 -2 1 -2 0 -2 1 -2 0 -2 0 -2 -1 -2 0 -2 -1 -1 -1 -2 -1 -2 -1 -1 -1 -1 -2 -1 -1 -1 -2 -1 -1 -1 -2 0 -2 -1 -2 0 -2z"/>
  <polygon class="fil0" points="1665,2252 1661,2252 1657,2251 1653,2250 1650,2249 1646,2248 1643,2246 1640,2244 1638,2241 1635,2239 1633,2235 1631,2232 1630,2228 1629,2224 1628,2220 1627,2216 1627,2211 1627,2148 1613,2148 1613,2120 1627,2120 1627,2084 1659,2084 1659,2120 1690,2120 1690,2148 1659,2148 1659,2210 1659,2213 1660,2216 1661,2218 1662,2220 1664,2221 1666,2222 1668,2223 1671,2223 1673,2223 1675,2223 1676,2222 1678,2222 1680,2221 1681,2220 1683,2219 1684,2218 1694,2244 1691,2246 1688,2247 1685,2249 1682,2250 1678,2251 1674,2252 1670,2252 "/>
  <polygon class="fil0" points="1714,2298 1714,2269 1716,2269 1719,2269 1722,2269 1725,2270 1728,2269 1731,2269 1733,2268 1735,2267 1738,2265 1739,2263 1741,2260 1743,2256 1747,2248 1743,2239 1738,2229 1734,2220 1730,2211 1726,2202 1722,2194 1718,2186 1715,2179 1713,2173 1712,2168 1710,2163 1709,2158 1708,2153 1708,2148 1707,2143 1707,2138 1707,2120 1741,2120 1741,2138 1741,2142 1741,2145 1741,2149 1742,2153 1743,2157 1744,2161 1745,2165 1746,2169 1748,2174 1750,2179 1753,2185 1755,2191 1757,2198 1760,2204 1762,2211 1763,2219 1764,2219 1766,2211 1768,2203 1770,2196 1772,2190 1775,2183 1777,2178 1779,2173 1780,2169 1782,2165 1783,2161 1784,2157 1785,2153 1786,2149 1786,2145 1786,2142 1786,2138 1786,2120 1819,2120 1819,2138 1819,2143 1819,2148 1818,2153 1817,2158 1816,2163 1815,2169 1813,2174 1811,2179 1808,2188 1803,2198 1799,2209 1793,2221 1788,2234 1782,2246 1777,2257 1772,2268 1770,2271 1769,2275 1767,2278 1765,2281 1763,2284 1760,2287 1758,2289 1755,2291 1753,2293 1750,2295 1747,2296 1744,2298 1740,2299 1737,2299 1733,2300 1729,2300 1726,2300 1723,2300 1719,2299 "/>
  <path class="fil0" d="M1963 2208l1 -6 1 -6 0 -6 0 -6 0 -5 0 -6 -1 -6 -1 -6 -1 -3 -1 -3 -1 -1 -1 -2 -1 -1 -1 -1 -2 -1 -1 -1 -1 -1 -2 -1 -2 0 -2 -1 -1 0 -3 0 -2 0 -2 0 -2 1 -1 0 -2 1 -1 1 -2 1 -1 1 -2 1 -1 1 -1 2 0 1 -1 2 -1 1 0 2 -1 1 0 6 -1 6 0 6 0 5 0 6 0 6 1 6 0 5 1 2 0 2 1 1 1 2 0 1 1 2 1 1 2 1 1 1 2 1 1 1 2 0 1 1 2 0 2 0 2 1 3 -1 1 0 2 0 2 -1 2 0 1 -1 1 -1 2 -1 1 -1 1 -1 1 -2 1 -1 1 -3 1 -3zm-71 7l-1 -3 0 -4 0 -3 -1 -3 0 -8 0 -10 0 -9 0 -7 1 -4 0 -3 0 -3 1 -3 1 -5 2 -3 2 -4 2 -4 2 -3 3 -3 3 -3 3 -3 3 -2 4 -2 4 -2 4 -1 5 -2 4 0 5 -1 5 0 5 0 4 1 5 0 4 2 4 1 4 2 4 2 3 2 4 3 2 3 3 3 2 3 2 4 2 4 2 3 1 5 1 3 0 3 1 3 0 4 0 7 0 9 0 10 0 8 0 3 -1 3 0 4 -1 3 -1 4 -2 4 -2 4 -2 3 -2 3 -3 3 -3 3 -3 3 -3 2 -4 2 -4 2 -4 2 -5 1 -5 1 -4 0 -5 1 -5 -1 -5 0 -4 -1 -4 -1 -4 -2 -4 -2 -4 -2 -3 -2 -4 -3 -2 -3 -3 -3 -2 -3 -2 -3 -2 -4 -2 -4 -1 -4z"/>
  <polygon class="fil0" points="2063,2148 2063,2250 2031,2250 2031,2148 2017,2148 2017,2120 2031,2120 2031,2109 2031,2104 2032,2099 2033,2095 2034,2092 2036,2088 2037,2084 2039,2081 2042,2078 2045,2076 2048,2074 2051,2072 2054,2071 2058,2069 2062,2068 2066,2068 2070,2068 2074,2068 2079,2068 2083,2069 2086,2070 2089,2071 2092,2072 2095,2073 2098,2075 2088,2101 2085,2099 2082,2098 2078,2098 2074,2097 2072,2098 2070,2098 2068,2099 2066,2101 2065,2102 2064,2105 2063,2107 2063,2110 2063,2120 2089,2120 2089,2148 "/>
  <path class="fil0" d="M2218 2115l-21 69 42 0 -21 -69zm-31 135l-33 0 0 -19 0 -5 0 -5 1 -6 1 -6 1 -6 1 -6 2 -6 2 -5 36 -106 40 0 36 106 2 5 2 6 1 6 1 6 1 6 1 6 0 5 0 5 0 19 -33 0 0 -19 0 -4 0 -4 -1 -5 0 -4 -60 0 0 4 -1 5 0 4 0 4 0 19z"/>
  <path class="fil0" d="M2340 2163l-1 5 0 5 0 6 0 5 0 7 0 5 0 5 1 4 1 2 0 2 1 2 1 2 1 2 1 1 1 2 1 1 1 1 2 1 2 1 1 1 2 0 2 0 2 1 2 0 2 0 2 -1 2 0 2 0 2 -1 1 -1 2 -1 1 -1 2 -1 1 -2 1 -1 1 -2 0 -2 1 -2 1 -2 0 -2 1 -4 0 -5 0 -5 0 -7 0 -5 0 -6 0 -5 -1 -5 0 -2 -1 -2 -1 -2 0 -1 -1 -2 -1 -1 -1 -2 -2 -1 -1 -1 -2 -1 -1 -1 -2 -1 -2 0 -2 -1 -2 0 -2 0 -2 0 -2 0 -2 1 -2 0 -1 1 -2 1 -2 1 -1 1 -1 1 -1 2 -1 1 -1 2 -1 1 -1 2 0 2 -1 2zm-1 81l0 55 -32 0 0 -179 27 0 1 10 3 -3 3 -2 4 -3 3 -2 5 -1 4 -1 6 -1 5 0 4 0 5 1 4 0 3 2 4 1 3 2 4 2 2 2 3 3 3 3 2 3 2 3 2 4 2 4 1 4 1 4 1 6 1 7 0 7 0 9 0 10 0 8 -1 7 -1 6 -1 4 -2 4 -1 4 -2 4 -2 3 -3 3 -2 3 -3 2 -4 3 -3 2 -3 1 -4 2 -4 1 -4 1 -5 0 -4 1 -4 0 -4 -1 -4 -1 -3 -1 -4 -1 -3 -2 -2 -1 -3 -2z"/>
  <path class="fil0" d="M2476 2163l-1 5 0 5 0 6 0 5 0 7 0 5 0 5 1 4 0 2 1 2 1 2 0 2 1 2 1 1 2 2 1 1 1 1 2 1 2 1 1 1 2 0 2 0 2 1 2 0 2 0 2 -1 2 0 2 0 1 -1 2 -1 2 -1 1 -1 1 -1 2 -2 1 -1 1 -2 0 -2 1 -2 1 -2 0 -2 1 -4 0 -5 0 -5 0 -7 0 -5 0 -6 0 -5 -1 -5 0 -2 -1 -2 -1 -2 0 -1 -1 -2 -1 -1 -2 -2 -1 -1 -1 -1 -2 -1 -2 -1 -1 -1 -2 0 -2 -1 -2 0 -2 0 -2 0 -2 0 -2 1 -2 0 -1 1 -2 1 -2 1 -1 1 -1 1 -2 2 -1 1 -1 2 0 1 -1 2 -1 2 0 2zm-1 81l0 55 -32 0 0 -179 26 0 2 10 3 -3 3 -2 4 -3 3 -2 5 -1 4 -1 6 -1 5 0 4 0 5 1 3 0 4 2 4 1 3 2 3 2 3 2 3 3 3 3 2 3 2 3 2 4 2 4 1 4 1 4 1 6 1 7 0 7 0 9 0 10 0 8 -1 7 -1 6 -1 4 -1 4 -2 4 -2 4 -2 3 -3 3 -2 3 -4 2 -3 3 -3 2 -4 1 -3 2 -4 1 -4 1 -5 0 -4 1 -4 0 -4 -1 -4 -1 -4 -1 -3 -1 -3 -2 -3 -1 -2 -2z"/>
  <polygon class="fil0" points="2612,2217 2613,2218 2614,2219 2615,2220 2616,2221 2618,2221 2619,2221 2621,2222 2623,2222 2625,2222 2628,2221 2629,2221 2631,2221 2631,2249 2628,2250 2624,2250 2620,2251 2617,2251 2613,2251 2610,2250 2607,2250 2604,2249 2602,2248 2599,2248 2597,2247 2594,2245 2592,2244 2590,2242 2588,2241 2587,2239 2585,2237 2584,2235 2582,2233 2581,2231 2581,2229 2580,2226 2579,2224 2579,2221 2578,2216 2578,2211 2578,2070 2610,2070 2610,2210 2611,2212 2611,2214 2611,2216 "/>
  <path class="fil0" d="M2651 2250l0 -130 32 0 0 130 -32 0zm-4 -163l0 -2 1 -2 0 -2 1 -1 0 -2 1 -2 2 -1 1 -2 1 -1 2 -1 2 -1 1 -1 2 0 2 -1 2 0 2 0 2 0 2 0 2 1 2 0 1 1 2 1 1 1 2 1 1 2 1 1 1 2 1 2 1 1 0 2 1 2 0 2 0 2 -1 2 0 2 -1 2 -1 1 -1 2 -1 1 -1 2 -2 1 -1 1 -2 1 -1 1 -2 1 -2 0 -2 1 -2 0 -2 0 -2 -1 -2 0 -2 -1 -1 -1 -2 -1 -2 -1 -1 -1 -1 -2 -2 -1 -1 -2 0 -1 -1 -2 0 -2 -1 -2 0 -2z"/>
  <path class="fil0" d="M2744 2162l-1 2 0 3 0 2 0 2 39 0 -1 -3 0 -2 0 -2 0 -2 -1 -3 -1 -4 -1 -1 -1 -2 -1 -1 -1 -1 -1 -1 -1 -1 -2 -1 -1 -1 -2 0 -2 -1 -2 0 -2 0 -2 0 -2 0 -1 1 -2 0 -2 1 -1 1 -1 1 -2 1 -1 1 -1 1 0 2 -1 1 -1 3 -1 4zm67 -7l1 4 1 5 0 6 0 7 0 4 0 5 0 5 0 6 -70 0 0 2 0 3 0 2 1 2 0 2 1 2 0 2 1 1 1 2 1 1 1 2 1 1 2 1 1 1 2 1 2 0 1 1 2 0 2 0 2 1 4 -1 4 0 3 -1 3 -1 2 -1 2 -1 1 -1 2 -2 2 -1 1 -2 2 -3 1 -2 21 20 -2 3 -3 3 -2 3 -3 2 -3 3 -2 2 -3 1 -4 2 -3 1 -3 1 -3 1 -3 1 -4 1 -3 0 -3 1 -4 0 -5 -1 -5 0 -5 -1 -4 -1 -4 -2 -4 -2 -3 -2 -4 -2 -3 -3 -3 -3 -2 -3 -2 -3 -3 -3 -1 -4 -2 -4 -1 -4 -1 -3 0 -4 -1 -3 0 -3 0 -8 0 -10 0 -9 0 -7 0 -4 1 -3 0 -3 1 -3 1 -5 2 -4 1 -3 3 -4 2 -3 2 -3 3 -3 3 -3 3 -2 4 -2 3 -2 5 -1 4 -2 4 0 5 -1 5 0 5 0 4 1 5 0 4 2 4 1 3 2 4 2 3 2 3 3 3 3 2 3 2 3 2 4 2 4 1 3 1 5z"/>
  <path class="fil0" d="M2910 2205l1 -4 0 -5 0 -6 0 -6 0 -5 0 -6 0 -5 -1 -5 0 -2 -1 -2 -1 -2 0 -1 -1 -2 -1 -1 -2 -2 -1 -1 -1 -1 -2 -1 -1 -1 -2 -1 -2 0 -2 -1 -2 0 -2 0 -2 0 -2 0 -2 1 -2 0 -1 1 -2 1 -2 1 -1 1 -1 1 -1 2 -1 1 -1 2 -1 1 -1 2 0 2 -1 2 0 5 -1 5 0 5 0 6 0 6 0 6 1 5 0 4 1 2 0 2 1 2 1 2 1 2 1 1 1 2 1 1 1 1 2 1 2 1 1 1 2 0 2 0 2 1 2 0 2 0 2 -1 2 0 2 0 2 -1 1 -1 2 -1 1 -1 1 -1 2 -2 1 -1 1 -2 0 -2 1 -2 1 -2 0 -2zm5 35l-3 2 -3 3 -3 2 -4 2 -4 1 -5 2 -5 0 -5 1 -4 -1 -5 0 -4 -1 -3 -1 -4 -2 -3 -2 -4 -2 -3 -2 -3 -2 -2 -4 -2 -3 -3 -3 -1 -3 -2 -4 -2 -4 -1 -4 -1 -7 0 -7 -1 -7 0 -10 0 -9 1 -8 0 -7 1 -6 1 -4 2 -4 2 -4 1 -4 3 -3 2 -3 3 -3 3 -2 3 -3 3 -2 4 -1 4 -2 4 -1 4 -1 4 0 4 0 4 0 5 0 3 1 4 1 3 1 3 2 3 1 2 2 0 -55 33 0 0 180 -27 0 -2 -10z"/>
  <polygon class="fil0" points="3020,2218 3046,2197 3047,2200 3049,2203 3051,2206 3052,2208 3054,2210 3056,2212 3058,2214 3060,2216 3062,2217 3064,2218 3066,2219 3069,2220 3071,2221 3073,2221 3076,2221 3078,2222 3080,2221 3082,2221 3084,2221 3086,2220 3088,2220 3090,2219 3091,2218 3093,2217 3094,2216 3095,2215 3096,2213 3096,2212 3097,2210 3097,2208 3098,2206 3098,2204 3098,2203 3097,2201 3097,2199 3096,2198 3096,2196 3095,2195 3094,2194 3093,2192 3090,2190 3088,2188 3084,2186 3081,2184 3063,2176 3059,2174 3055,2172 3051,2170 3047,2167 3044,2165 3041,2162 3039,2159 3036,2157 3034,2154 3032,2150 3031,2147 3030,2144 3029,2140 3028,2136 3028,2132 3028,2128 3028,2122 3029,2117 3030,2112 3031,2107 3033,2103 3036,2099 3039,2095 3042,2091 3046,2088 3049,2085 3054,2083 3058,2081 3063,2079 3068,2078 3074,2077 3079,2077 3085,2077 3090,2078 3095,2079 3099,2080 3104,2082 3108,2084 3110,2085 3113,2087 3114,2088 3116,2090 3118,2091 3120,2093 3121,2095 3123,2097 3124,2099 3125,2102 3127,2104 3128,2107 3129,2109 3129,2112 3130,2115 3131,2118 3131,2121 3132,2124 3132,2128 3132,2132 3132,2135 3132,2139 3098,2139 3098,2135 3098,2132 3098,2129 3098,2126 3098,2124 3097,2122 3097,2120 3096,2118 3095,2116 3094,2114 3093,2113 3091,2111 3090,2110 3088,2109 3086,2109 3084,2108 3081,2108 3079,2108 3077,2108 3075,2108 3073,2108 3071,2109 3069,2110 3068,2110 3067,2111 3065,2112 3064,2114 3063,2115 3062,2117 3062,2118 3061,2120 3061,2122 3061,2124 3061,2125 3061,2129 3061,2131 3062,2134 3064,2137 3065,2138 3066,2139 3067,2141 3068,2142 3070,2143 3072,2144 3074,2145 3076,2146 3097,2157 3102,2159 3106,2161 3110,2163 3113,2166 3116,2168 3119,2171 3121,2174 3124,2176 3126,2179 3127,2182 3129,2185 3130,2188 3131,2192 3131,2195 3132,2199 3132,2202 3131,2208 3131,2213 3130,2216 3129,2219 3129,2221 3128,2223 3127,2226 3126,2228 3125,2230 3123,2232 3122,2234 3120,2236 3118,2237 3117,2239 3115,2241 3113,2242 3111,2244 3108,2245 3104,2247 3099,2249 3094,2251 3088,2252 3082,2252 3076,2253 3071,2253 3066,2252 3061,2251 3057,2250 3053,2249 3049,2247 3045,2245 3042,2243 3038,2241 3035,2238 3032,2235 3029,2232 3027,2229 3024,2226 3022,2222 "/>
  <polygon class="fil0" points="3157,2215 3157,2212 3156,2208 3156,2205 3155,2202 3155,2194 3155,2184 3155,2175 3155,2167 3156,2164 3156,2160 3157,2157 3157,2154 3158,2150 3160,2146 3162,2143 3164,2139 3166,2136 3168,2133 3171,2130 3174,2127 3177,2125 3181,2123 3184,2121 3188,2120 3192,2118 3197,2117 3202,2117 3206,2117 3211,2117 3216,2117 3220,2118 3224,2119 3228,2120 3231,2121 3234,2123 3238,2125 3241,2127 3243,2130 3246,2133 3248,2136 3250,2139 3252,2143 3253,2147 3254,2152 3255,2156 3255,2160 3256,2164 3256,2169 3256,2172 3224,2172 3224,2170 3224,2168 3224,2166 3224,2164 3224,2162 3224,2160 3223,2158 3223,2157 3222,2155 3221,2153 3220,2152 3219,2150 3218,2149 3217,2148 3216,2148 3214,2147 3213,2146 3211,2146 3209,2145 3208,2145 3206,2145 3204,2145 3202,2145 3200,2146 3199,2146 3197,2147 3195,2148 3194,2149 3193,2150 3192,2151 3191,2153 3190,2154 3190,2156 3189,2159 3188,2163 3187,2167 3187,2173 3187,2179 3187,2184 3187,2190 3187,2196 3187,2200 3188,2205 3189,2209 3190,2212 3191,2214 3192,2216 3193,2217 3194,2218 3195,2220 3197,2221 3198,2221 3200,2222 3202,2223 3204,2223 3206,2223 3208,2224 3210,2223 3213,2223 3215,2223 3216,2222 3218,2222 3220,2221 3222,2220 3224,2219 3226,2216 3229,2213 3231,2210 3233,2206 3255,2227 3253,2230 3251,2233 3249,2235 3246,2238 3243,2240 3241,2243 3238,2244 3235,2246 3232,2248 3228,2249 3225,2250 3221,2251 3218,2252 3215,2252 3211,2253 3207,2253 3202,2252 3197,2252 3193,2251 3189,2250 3184,2248 3181,2246 3177,2244 3174,2242 3171,2239 3168,2236 3166,2233 3164,2230 3162,2227 3160,2223 3158,2219 "/>
  <path class="fil0" d="M3279 2250l0 -130 33 0 0 130 -33 0zm-3 -163l0 -2 0 -2 0 -2 1 -1 1 -2 1 -2 1 -1 1 -2 2 -1 1 -1 2 -1 2 -1 1 0 2 -1 2 0 2 0 2 0 2 0 2 1 2 0 2 1 1 1 2 1 2 1 1 2 1 1 1 2 1 2 0 1 1 2 0 2 0 2 0 2 0 2 -1 2 0 2 -1 1 -1 2 -1 1 -1 2 -2 1 -2 1 -1 1 -2 1 -2 1 -2 0 -2 1 -2 0 -2 0 -2 -1 -2 0 -1 -1 -2 -1 -2 -1 -1 -1 -2 -1 -1 -2 -1 -1 -1 -2 -1 -1 -1 -2 0 -2 0 -2 0 -2z"/>
  <path class="fil0" d="M3372 2162l0 2 0 3 -1 2 0 2 39 0 0 -3 0 -2 0 -2 -1 -2 0 -3 -2 -4 -1 -1 0 -2 -1 -1 -1 -1 -2 -1 -1 -1 -1 -1 -2 -1 -1 0 -2 -1 -2 0 -2 0 -2 0 -2 0 -2 1 -2 0 -1 1 -2 1 -1 1 -1 1 -1 1 -1 1 -1 2 -1 1 -1 3 -1 4zm68 -7l1 4 0 5 1 6 0 7 0 4 0 5 -1 5 0 6 -70 0 0 2 1 3 0 2 0 2 1 2 0 2 1 2 1 1 0 2 1 1 2 2 1 1 1 1 1 1 2 1 2 0 2 1 2 0 2 0 2 1 4 -1 3 0 3 -1 4 -1 2 -1 1 -1 2 -1 1 -2 2 -1 1 -2 2 -3 2 -2 20 20 -2 3 -2 3 -3 3 -3 2 -2 3 -3 2 -3 1 -3 2 -3 1 -3 1 -3 1 -4 1 -3 1 -4 0 -3 1 -4 0 -5 -1 -4 0 -5 -1 -5 -1 -4 -2 -4 -2 -3 -2 -3 -2 -4 -3 -2 -3 -3 -3 -2 -3 -2 -3 -2 -4 -1 -4 -2 -4 0 -3 -1 -4 0 -3 0 -3 -1 -8 0 -10 0 -9 1 -7 0 -4 0 -3 1 -3 0 -3 2 -5 1 -4 2 -3 2 -4 2 -3 3 -3 2 -3 4 -3 3 -2 3 -2 4 -2 4 -1 4 -2 5 0 4 -1 5 0 5 0 5 1 4 0 4 2 4 1 4 2 3 2 4 2 2 3 3 3 3 3 2 3 2 4 1 4 2 3 1 5z"/>
  <polygon class="fil0" points="3500,2250 3468,2250 3468,2120 3496,2120 3497,2131 3499,2130 3500,2128 3501,2126 3503,2125 3505,2124 3507,2122 3508,2121 3510,2120 3514,2119 3518,2118 3523,2117 3527,2117 3532,2117 3537,2118 3541,2119 3545,2120 3549,2122 3552,2124 3556,2126 3558,2129 3561,2132 3563,2135 3565,2139 3567,2143 3568,2147 3569,2152 3570,2156 3570,2161 3570,2250 3538,2250 3538,2166 3538,2163 3537,2161 3537,2159 3536,2157 3536,2156 3535,2154 3534,2153 3533,2151 3532,2150 3530,2149 3529,2148 3527,2147 3525,2147 3523,2146 3521,2146 3519,2146 3517,2146 3515,2146 3513,2147 3512,2147 3510,2148 3508,2149 3507,2150 3505,2151 3504,2153 3503,2154 3502,2156 3502,2157 3501,2159 3501,2161 3500,2163 3500,2166 "/>
  <polygon class="fil0" points="3599,2215 3598,2212 3598,2208 3597,2205 3597,2202 3596,2194 3596,2184 3596,2175 3597,2167 3598,2160 3599,2154 3600,2150 3601,2146 3603,2143 3605,2139 3607,2136 3610,2133 3612,2130 3615,2127 3619,2125 3622,2123 3626,2121 3630,2120 3634,2118 3638,2117 3643,2117 3648,2117 3652,2117 3657,2117 3661,2118 3665,2119 3669,2120 3673,2121 3676,2123 3679,2125 3682,2127 3685,2130 3687,2133 3689,2136 3692,2139 3693,2143 3695,2147 3696,2152 3696,2156 3697,2160 3697,2164 3697,2169 3697,2172 3666,2172 3666,2170 3666,2168 3666,2166 3665,2164 3665,2162 3665,2160 3665,2158 3664,2157 3663,2155 3663,2153 3662,2152 3661,2150 3660,2149 3659,2148 3657,2148 3656,2147 3654,2146 3653,2146 3651,2145 3649,2145 3647,2145 3645,2145 3643,2145 3642,2146 3640,2146 3638,2147 3637,2148 3636,2149 3635,2150 3634,2151 3633,2153 3632,2154 3631,2156 3630,2159 3629,2163 3629,2167 3629,2173 3629,2179 3628,2184 3629,2190 3629,2196 3629,2200 3629,2205 3630,2209 3632,2212 3632,2214 3633,2216 3634,2217 3636,2218 3637,2220 3638,2221 3640,2221 3642,2222 3643,2223 3645,2223 3647,2223 3649,2224 3652,2223 3654,2223 3656,2223 3658,2222 3660,2222 3662,2221 3663,2220 3665,2219 3668,2216 3671,2213 3673,2210 3675,2206 3696,2227 3695,2230 3693,2233 3690,2235 3688,2238 3685,2240 3682,2243 3679,2244 3676,2246 3673,2248 3670,2249 3667,2250 3663,2251 3660,2252 3656,2252 3652,2253 3649,2253 3644,2252 3639,2252 3634,2251 3630,2250 3626,2248 3622,2246 3619,2244 3615,2242 3612,2239 3610,2236 3607,2233 3605,2230 3603,2227 3601,2223 3600,2219 "/>
  <path class="fil0" d="M3750 2162l0 2 0 3 0 2 0 2 38 0 0 -3 0 -2 0 -2 0 -2 -1 -3 -1 -4 -1 -1 -1 -2 -1 -1 -1 -1 -1 -1 -1 -1 -2 -1 -1 -1 -2 0 -2 -1 -2 0 -2 0 -2 0 -2 0 -2 1 -1 0 -2 1 -1 1 -2 1 -1 1 -1 1 -1 1 -1 2 0 1 -2 3 -1 4zm68 -7l1 4 1 5 0 6 0 7 0 4 0 5 0 5 0 6 -70 0 0 2 0 3 0 2 0 2 1 2 1 2 0 2 1 1 1 2 1 1 1 2 1 1 1 1 2 1 1 1 2 0 2 1 2 0 2 0 2 1 4 -1 3 0 4 -1 3 -1 2 -1 2 -1 1 -1 2 -2 1 -1 2 -2 1 -3 2 -2 21 20 -2 3 -3 3 -3 3 -2 2 -3 3 -3 2 -2 1 -4 2 -3 1 -3 1 -3 1 -4 1 -3 1 -3 0 -4 1 -3 0 -5 -1 -5 0 -5 -1 -4 -1 -4 -2 -4 -2 -4 -2 -3 -2 -3 -3 -3 -3 -2 -3 -3 -3 -2 -3 -2 -4 -1 -4 -1 -4 -1 -3 0 -4 -1 -3 0 -3 0 -8 0 -10 0 -9 0 -7 0 -4 1 -3 0 -3 1 -3 1 -5 1 -4 2 -3 2 -4 3 -3 2 -3 3 -3 3 -3 3 -2 4 -2 3 -2 4 -1 5 -2 4 0 5 -1 5 0 4 0 5 1 4 0 5 2 4 1 3 2 4 2 3 2 3 3 2 3 3 3 2 3 2 4 2 4 1 3 1 5z"/>
  <polygon class="fil0" points="3901,2175 3907,2177 3914,2180 3917,2182 3919,2184 3922,2185 3924,2188 3926,2190 3928,2192 3929,2195 3931,2198 3932,2201 3933,2205 3933,2209 3933,2214 3933,2218 3932,2222 3931,2226 3930,2229 3928,2233 3926,2236 3923,2239 3920,2242 3917,2244 3914,2246 3910,2248 3906,2250 3902,2251 3897,2252 3893,2252 3888,2253 3883,2253 3879,2252 3874,2252 3871,2251 3867,2249 3863,2248 3860,2247 3856,2245 3853,2243 3851,2241 3848,2239 3845,2236 3843,2234 3841,2231 3839,2228 3838,2225 3861,2206 3863,2210 3866,2213 3869,2216 3872,2219 3874,2220 3876,2221 3877,2222 3879,2222 3881,2223 3883,2223 3886,2223 3888,2224 3891,2223 3893,2223 3895,2222 3897,2221 3898,2220 3899,2219 3900,2218 3900,2217 3900,2216 3900,2215 3900,2212 3900,2210 3899,2209 3898,2208 3898,2207 3897,2207 3895,2205 3892,2204 3889,2203 3885,2201 3874,2198 3870,2196 3866,2194 3863,2192 3859,2190 3856,2188 3854,2186 3852,2184 3849,2181 3848,2179 3846,2176 3845,2173 3844,2170 3844,2167 3843,2164 3843,2161 3843,2157 3843,2153 3844,2149 3845,2145 3846,2141 3848,2137 3850,2134 3853,2131 3855,2128 3859,2126 3862,2123 3866,2121 3870,2120 3874,2119 3878,2118 3883,2117 3888,2117 3893,2117 3899,2118 3904,2118 3908,2120 3912,2121 3916,2123 3919,2125 3922,2128 3925,2131 3927,2134 3929,2137 3930,2141 3931,2145 3932,2149 3932,2153 3933,2157 3933,2160 3932,2164 3900,2164 3901,2162 3901,2160 3901,2158 3900,2156 3900,2154 3900,2152 3899,2151 3898,2150 3897,2149 3896,2148 3895,2147 3894,2147 3893,2146 3892,2146 3890,2145 3887,2145 3886,2145 3884,2145 3883,2146 3882,2146 3880,2147 3878,2149 3877,2150 3876,2153 3875,2155 3875,2157 3875,2158 3875,2159 3875,2160 3876,2161 3877,2163 3879,2165 3881,2167 3884,2168 3887,2170 3891,2171 "/>
  <polygon class="fil0" points="2060,187 2248,187 2248,562 2060,562 "/>
  <polygon class="fil0" points="2435,562 2435,749 2248,749 2248,562 2435,562 "/>
  <polygon class="fil0" points="749,0 937,0 937,187 1124,187 1124,374 937,374 937,562 1124,562 1124,749 937,749 927,749 917,748 908,747 899,745 890,743 881,741 872,738 864,734 855,731 847,727 840,722 832,717 825,712 817,706 811,700 804,694 798,688 792,681 786,674 781,667 776,659 772,651 768,643 764,635 761,626 758,618 755,609 753,599 752,590 750,581 749,571 749,562 749,556 749,538 749,510 749,474 749,432 749,384 749,333 749,281 749,228 749,178 749,130 749,88 749,52 749,24 749,6 749,0 "/>
  <polygon class="fil0" points="1311,187 1498,187 1498,562 1686,562 1686,187 1873,187 1873,562 2060,562 2060,749 1498,749 1489,749 1479,748 1470,747 1461,745 1452,743 1443,741 1434,738 1425,734 1417,731 1409,727 1401,722 1394,717 1386,712 1379,706 1372,700 1366,694 1360,688 1354,681 1348,674 1343,667 1338,659 1334,651 1330,643 1326,635 1323,626 1320,618 1317,609 1315,599 1313,590 1312,581 1311,571 1311,562 "/>
  <polygon class="fil0" points="187,374 187,749 0,749 0,374 187,374 "/>
  <polygon class="fil0" points="187,0 187,187 0,187 0,0 187,0 "/>
  <polygon class="fil0" points="187,187 375,187 384,187 394,188 403,189 412,191 421,193 430,195 439,199 448,202 456,206 464,210 472,214 479,219 487,224 494,230 501,236 507,242 513,249 519,255 525,262 530,270 535,277 539,285 544,293 547,302 551,310 553,319 556,328 558,337 560,346 561,355 562,365 562,374 562,749 375,749 375,374 187,374 187,187 "/>
 </g>
</svg>
