<?xml version="1.0" encoding="UTF-8"?>
<!DOCTYPE svg PUBLIC "-//W3C//DTD SVG 1.1//EN" "http://www.w3.org/Graphics/SVG/1.1/DTD/svg11.dtd">
<!-- Creator: CorelDRAW X8 -->
<svg xmlns="http://www.w3.org/2000/svg" xml:space="preserve" width="50.7944mm" height="48.3435mm" version="1.1" style="shape-rendering:geometricPrecision; text-rendering:geometricPrecision; image-rendering:optimizeQuality; fill-rule:evenodd; clip-rule:evenodd"
viewBox="0 0 5629 5357"
 xmlns:xlink="http://www.w3.org/1999/xlink">
 <defs>
  <style type="text/css">
   <![CDATA[
    .fil0 {fill:#76B500}
   ]]>
  </style>
 </defs>
 <g id="Ebene_x0020_1">
  <metadata id="CorelCorpID_0Corel-Layer"/>
  <g id="_2843490011504">
   <polygon class="fil0" points="1210,4115 1656,4115 1656,4548 2319,3884 1922,3483 3031,2404 3385,2769 2646,3489 3039,3885 2012,4911 2451,4911 2451,5357 1210,5357 "/>
   <polygon class="fil0" points="1826,3065 0,3065 0,2556 1318,2556 1322,2534 1326,2513 1330,2493 1334,2472 1339,2451 1344,2430 1350,2410 1356,2389 1361,2369 1367,2349 1374,2329 1380,2309 1388,2289 1395,2269 1402,2250 1410,2230 1418,2211 1427,2192 1435,2173 1444,2154 1453,2135 1462,2117 1472,2099 1482,2080 1492,2062 1502,2044 1513,2026 1524,2009 1535,1991 1546,1974 1557,1956 1569,1940 641,1009 1001,650 1926,1575 1944,1563 1961,1550 1979,1538 1997,1526 2015,1515 2033,1504 2052,1492 2071,1482 2089,1471 2108,1461 2127,1451 2147,1441 2166,1431 2186,1422 2206,1413 2226,1405 2246,1396 2266,1388 2286,1380 2307,1373 2328,1366 2348,1359 2369,1352 2391,1346 2412,1339 2433,1334 2455,1328 2476,1323 2498,1318 2520,1314 2542,1309 2564,1305 2564,0 3073,0 3073,1302 3097,1306 3121,1311 3144,1316 3168,1321 3192,1326 3215,1332 3238,1339 3261,1345 3283,1352 3306,1360 3329,1367 3351,1375 3373,1384 3395,1392 3417,1401 3439,1411 3460,1420 3482,1430 3503,1441 3524,1451 3545,1462 3565,1474 3586,1485 3606,1497 3626,1509 3646,1522 3665,1535 3685,1548 3704,1561 3723,1575 3742,1589 3761,1603 4670,694 5030,1053 4107,1977 4117,1993 4127,2010 4137,2026 4147,2043 4157,2059 4166,2076 4175,2094 4184,2111 4193,2128 4202,2146 4210,2163 4218,2181 4226,2199 4234,2217 4241,2235 4248,2253 4255,2272 4262,2290 4269,2309 4275,2328 4281,2347 4287,2366 4293,2385 4299,2404 4304,2423 4309,2442 4313,2462 4318,2481 4322,2501 4326,2521 4330,2541 4333,2560 5629,2560 5629,3070 4332,3070 4328,3092 4323,3114 4319,3136 4314,3158 4309,3179 4303,3201 4297,3222 4291,3243 4285,3264 4278,3286 4271,3306 4264,3327 4256,3348 4248,3368 4240,3388 4232,3409 4223,3429 4214,3448 4205,3468 4195,3488 4185,3507 4176,3526 4165,3545 4155,3564 4144,3583 4133,3602 4121,3620 4110,3639 4098,3657 4086,3675 4074,3693 4062,3710 4963,4611 4603,4972 3697,4067 3696,4066 3693,4064 3689,4060 3683,4054 3667,4039 3648,4019 3624,3995 3598,3968 3569,3939 3539,3908 3535,3904 3531,3900 3527,3896 3523,3892 3489,3857 3455,3822 3424,3790 3396,3762 3372,3737 3353,3718 3346,3712 3340,3706 3337,3703 3335,3702 3397,3654 3422,3637 3446,3618 3470,3599 3493,3580 3516,3560 3538,3538 3560,3517 3580,3494 3600,3472 3620,3448 3639,3424 3657,3399 3674,3375 3690,3349 3706,3322 3721,3296 3735,3269 3749,3241 3762,3213 3773,3184 3784,3155 3794,3125 3803,3096 3811,3065 3819,3035 3825,3004 3830,2972 3835,2941 3839,2909 3841,2877 3843,2844 3843,2811 3842,2759 3838,2707 3832,2656 3822,2606 3811,2557 3797,2508 3781,2461 3763,2414 3743,2369 3720,2325 3696,2283 3669,2241 3641,2202 3611,2163 3579,2126 3545,2091 3509,2057 3472,2025 3434,1995 3394,1966 3353,1940 3310,1915 3266,1893 3221,1872 3175,1854 3127,1838 3079,1824 3029,1813 2979,1804 2928,1797 2877,1793 2824,1792 2772,1793 2720,1797 2669,1804 2619,1813 2570,1824 2522,1838 2475,1854 2429,1872 2383,1893 2340,1915 2297,1940 2255,1966 2216,1995 2177,2025 2140,2057 2105,2091 2071,2126 2039,2163 2009,2202 1981,2241 1954,2283 1930,2325 1907,2369 1887,2414 1868,2461 1853,2508 1839,2557 1827,2606 1818,2656 1812,2707 1808,2759 1807,2811 1806,2833 1806,2855 1807,2877 1808,2899 1809,2920 1811,2941 1813,2962 1815,2981 1817,2998 1819,3015 1821,3029 1822,3041 1824,3052 1825,3059 1826,3064 "/>
  </g>
 </g>
</svg>
