<?xml version="1.0" encoding="UTF-8" standalone="no"?>
<svg
   xmlns:dc="http://purl.org/dc/elements/1.1/"
   xmlns:cc="http://creativecommons.org/ns#"
   xmlns:rdf="http://www.w3.org/1999/02/22-rdf-syntax-ns#"
   xmlns:svg="http://www.w3.org/2000/svg"
   xmlns="http://www.w3.org/2000/svg"
   xmlns:sodipodi="http://sodipodi.sourceforge.net/DTD/sodipodi-0.dtd"
   xmlns:inkscape="http://www.inkscape.org/namespaces/inkscape"
   xml:space="preserve"
   width="2173px"
   height="1961px"
   version="1.1"
   style="shape-rendering:geometricPrecision; text-rendering:geometricPrecision; image-rendering:optimizeQuality; fill-rule:evenodd; clip-rule:evenodd"
   viewBox="0 0 2240 2021"
   id="svg250"
   sodipodi:docname="unabhaengigkeitsrechner-energiefluesse.svg"
   inkscape:version="1.0.1 (3bc2e813f5, 2020-09-07)"><metadata
   id="metadata254"><rdf:RDF><cc:Work
       rdf:about=""><dc:format>image/svg+xml</dc:format><dc:type
         rdf:resource="http://purl.org/dc/dcmitype/StillImage" /><dc:title></dc:title></cc:Work></rdf:RDF></metadata><sodipodi:namedview
   pagecolor="#ffffff"
   bordercolor="#666666"
   borderopacity="1"
   objecttolerance="10"
   gridtolerance="10"
   guidetolerance="10"
   inkscape:pageopacity="0"
   inkscape:pageshadow="2"
   inkscape:window-width="2560"
   inkscape:window-height="1330"
   id="namedview252"
   showgrid="false"
   inkscape:zoom="0.37480877"
   inkscape:cx="1086.5"
   inkscape:cy="980.5"
   inkscape:window-x="-12"
   inkscape:window-y="-12"
   inkscape:window-maximized="1"
   inkscape:current-layer="svg250" />
 <defs
   id="defs69">
  <font
   id="FontID0"
   horiz-adv-x="555"
   font-variant="normal"
   style="fill-rule:nonzero"
   font-weight="400">
	<font-face
   font-family="HTWBerlin Office"
   id="font-face2">
		<font-face-src>
			<font-face-name
   name="HTWBerlin Office" />
		</font-face-src>
	</font-face>
   <missing-glyph
   id="missing-glyph6"><path
     d="M0 0z"
     id="path4" /></missing-glyph>
   <glyph
   unicode="D"
   horiz-adv-x="614"
   d="M83 0l0 653 165 0c49,0 92,-8 131,-24 40,-15 73,-37 101,-66 27,-29 48,-63 63,-104 15,-40 22,-84 22,-133 0,-49 -8,-93 -23,-133 -14,-40 -36,-74 -64,-103 -28,-29 -62,-51 -101,-66 -39,-16 -83,-24 -132,-24l-162 0zm163 77c37,0 71,6 101,18 29,12 54,29 75,50 20,22 36,48 47,79 11,31 16,65 16,103 0,37 -5,71 -16,103 -11,30 -27,57 -47,79 -21,22 -46,39 -75,51 -30,12 -64,18 -101,18l-83 0 0 -501 83 0z"
   id="glyph8" />
   <glyph
   unicode="c"
   horiz-adv-x="462"
   d="M248 -10c-50,0 -91,13 -122,39 -30,26 -51,60 -61,102 -4,17 -6,34 -7,50 -1,17 -2,40 -2,68 0,27 1,50 2,67 1,17 3,34 7,51 9,41 30,75 60,102 32,26 71,39 119,39 95,0 152,-41 171,-124 5,-19 7,-41 7,-66l-75 0c0,7 0,15 0,21 -1,8 -2,14 -3,21 -6,25 -17,45 -34,58 -17,13 -39,20 -68,20 -30,0 -53,-8 -71,-26 -16,-16 -28,-40 -33,-70 -2,-12 -3,-26 -4,-42 0,-17 0,-34 0,-51 0,-18 0,-35 0,-51 1,-15 2,-29 4,-40 5,-30 18,-54 36,-72 19,-17 45,-26 76,-26 25,0 48,6 67,17 19,12 34,28 45,48l51 -52c-17,-26 -40,-46 -68,-61 -29,-15 -61,-22 -97,-22z"
   id="glyph10" />
   <glyph
   unicode="t"
   horiz-adv-x="327"
   d="M308 18c-9,-7 -21,-13 -35,-18 -14,-5 -33,-8 -58,-8 -38,0 -68,12 -90,37 -22,26 -33,60 -33,104l0 295 -57 0 0 69 57 0 0 135 76 0 0 -135 124 0 0 -69 -124 0 0 -296c0,-23 5,-40 15,-51 11,-11 25,-16 42,-16 14,0 25,2 33,5 9,2 17,7 25,12l25 -64z"
   id="glyph12" />
   <glyph
   unicode="-"
   horiz-adv-x="432"
   d="M72 365l288 0 0 -73 -288 0 0 73z"
   id="glyph14" />
   <glyph
   unicode="n"
   horiz-adv-x="517"
   d="M153 0l-76 0 0 497 64 0 6 -58c13,21 31,37 54,50 23,13 50,19 81,19 24,0 46,-4 66,-12 20,-8 37,-19 51,-34 14,-15 25,-32 33,-53 8,-21 12,-43 12,-68l0 -341 -77 0 0 326c0,35 -9,61 -27,81 -18,18 -44,28 -79,28 -30,0 -56,-10 -77,-28 -20,-20 -31,-46 -31,-81l0 -326z"
   id="glyph16" />
   <glyph
   unicode="k"
   horiz-adv-x="472"
   d="M153 210l0 -210 -76 0 0 684 76 0 0 -400 22 0c30,0 56,5 77,17 21,11 39,25 52,44 14,18 24,39 31,63 7,23 10,47 10,72l0 17 77 0c1,-4 1,-7 1,-11 0,-3 0,-6 0,-9 0,-25 -3,-49 -8,-72 -5,-24 -13,-46 -24,-68 -10,-21 -23,-39 -39,-57 -16,-16 -34,-31 -55,-42l149 -238 -94 0 -129 214c-7,-1 -15,-2 -22,-3 -8,-1 -16,-1 -24,-1l-24 0z"
   id="glyph18" />
   <glyph
   unicode="y"
   horiz-adv-x="490"
   d="M103 -190c-5,0 -10,0 -15,0 -5,0 -11,1 -20,2l0 72c5,-1 9,-1 13,-1 3,0 7,0 13,0 9,0 18,1 26,2 9,2 17,6 25,11 7,5 15,13 22,22 7,10 15,23 22,38l20 42c-11,24 -23,49 -36,75 -13,26 -25,52 -37,77 -11,26 -22,51 -33,74 -11,23 -20,44 -27,63 -11,29 -19,56 -23,82 -4,26 -6,51 -6,75l0 53 77 0 0 -53c0,-19 2,-41 5,-63 3,-23 10,-47 19,-70 6,-17 13,-34 22,-54 9,-18 18,-38 26,-58 9,-20 18,-41 26,-62 9,-21 16,-43 22,-65l4 0c6,22 13,44 21,66 9,23 18,44 27,66 8,21 17,40 25,59 8,19 15,35 20,48 9,24 16,47 20,70 3,23 5,44 5,63l0 53 76 0 0 -53c0,-24 -2,-49 -6,-76 -4,-27 -12,-54 -23,-81 -8,-21 -18,-46 -31,-77 -13,-30 -27,-62 -42,-94 -14,-33 -28,-67 -43,-100 -16,-32 -29,-62 -42,-88 -9,-17 -18,-33 -27,-48 -9,-14 -20,-26 -32,-37 -11,-11 -25,-19 -40,-24 -15,-6 -33,-9 -53,-9z"
   id="glyph20" />
   <glyph
   unicode="h"
   horiz-adv-x="517"
   d="M153 0l-76 0 0 684 76 0 0 -238c13,19 31,35 52,46 22,11 48,16 77,16 24,0 46,-4 66,-12 20,-8 37,-19 51,-34 14,-15 25,-32 33,-53 8,-21 12,-43 12,-68l0 -341 -77 0 0 326c0,35 -9,61 -27,81 -18,18 -44,28 -79,28 -30,0 -56,-10 -77,-28 -20,-20 -31,-46 -31,-81l0 -326z"
   id="glyph22" />
   <glyph
   unicode="v"
   horiz-adv-x="495"
   d="M200 0c-9,17 -18,38 -29,61 -11,23 -21,48 -32,73 -11,25 -21,50 -31,75 -11,25 -20,49 -28,70 -11,27 -19,56 -23,85 -6,29 -8,56 -8,80l0 53 76 0 0 -53c0,-19 2,-42 7,-68 4,-26 10,-51 19,-75 12,-35 28,-74 47,-117 19,-42 35,-87 48,-134l4 0c13,47 29,92 48,134 19,43 35,82 47,117 9,24 15,49 19,75 5,26 7,49 7,68l0 53 77 0 0 -53c0,-24 -3,-51 -9,-81 -5,-29 -13,-57 -23,-84 -8,-21 -17,-45 -28,-70 -10,-25 -20,-50 -31,-75 -11,-25 -22,-50 -33,-73 -11,-23 -20,-44 -29,-61l-95 0z"
   id="glyph24" />
   <glyph
   unicode="e"
   horiz-adv-x="481"
   d="M138 342c-1,-8 -2,-17 -3,-28 -1,-10 -1,-21 -1,-32l218 0 0 21c0,9 0,17 -1,23 -1,8 -2,16 -3,25 -5,25 -15,45 -33,62 -16,17 -40,25 -70,25 -31,0 -55,-8 -73,-26 -17,-16 -29,-40 -34,-70zm282 -269c-17,-26 -41,-46 -70,-61 -29,-15 -62,-22 -98,-22 -51,0 -92,13 -123,39 -32,26 -53,60 -64,102 -4,17 -6,34 -7,50 -1,17 -2,40 -2,68 0,27 1,50 2,67 1,17 3,34 7,51 10,42 31,76 62,102 31,26 71,39 120,39 49,0 88,-13 117,-38 29,-25 49,-60 59,-104 3,-11 4,-24 6,-39 1,-15 1,-33 1,-52 0,-9 0,-19 0,-30 -1,-10 -1,-21 -2,-32l-294 0c1,-11 1,-21 2,-30 1,-9 2,-18 3,-26 5,-29 18,-53 38,-71 19,-17 45,-26 77,-26 25,0 48,6 68,18 20,12 36,28 47,47l51 -52z"
   id="glyph26" />
   <glyph
   unicode="b"
   horiz-adv-x="523"
   d="M281 -10c-33,0 -60,6 -80,19 -21,12 -37,28 -49,49l-7 -58 -68 0 0 684 76 0 0 -239c13,19 31,35 53,46 22,11 50,17 84,17 44,0 81,-13 110,-39 29,-26 49,-60 59,-102 4,-17 7,-34 8,-51 1,-17 1,-40 1,-67 0,-28 0,-51 -1,-68 -1,-16 -4,-34 -8,-51 -10,-41 -31,-75 -62,-101 -31,-26 -70,-39 -116,-39zm-9 72c30,0 55,8 75,25 20,17 33,40 39,70 3,11 4,25 5,41 1,16 1,33 1,51 0,17 0,34 -1,51 -1,16 -2,30 -5,43 -6,30 -19,53 -39,69 -20,16 -45,24 -75,24 -30,0 -55,-8 -76,-25 -20,-17 -33,-40 -38,-69 -3,-12 -4,-26 -4,-42 -1,-17 -1,-34 -1,-51 0,-18 0,-35 1,-51 1,-15 2,-29 4,-40 5,-29 18,-52 38,-70 21,-17 46,-26 76,-26z"
   id="glyph28" />
   <glyph
   unicode="s"
   horiz-adv-x="428"
   d="M232 278c24,-9 45,-17 63,-26 18,-9 33,-19 44,-30 12,-11 21,-25 26,-40 6,-15 9,-34 9,-56 0,-20 -4,-38 -12,-55 -7,-17 -18,-31 -32,-43 -13,-12 -30,-21 -50,-28 -19,-7 -41,-10 -65,-10 -25,0 -47,3 -66,8 -19,5 -36,12 -50,21 -14,8 -26,17 -35,28 -9,10 -16,20 -21,31l57 48c8,-17 21,-32 41,-45 18,-14 44,-21 76,-21 25,0 44,6 59,17 14,12 21,28 21,47 0,12 -2,22 -6,30 -4,8 -11,15 -19,21 -9,6 -21,12 -35,18 -15,5 -32,12 -53,20l-11 4c-43,17 -74,36 -90,60 -18,23 -26,52 -26,87 0,21 4,40 12,58 8,17 19,32 33,45 14,13 31,23 50,30 19,7 41,11 64,11 28,0 52,-4 72,-11 20,-7 36,-17 49,-29 13,-13 22,-27 28,-45 6,-16 9,-35 9,-54l0 -13 -76 0 0 4c0,28 -8,48 -24,60 -17,12 -37,18 -60,18 -14,0 -26,-2 -36,-6 -10,-5 -18,-10 -24,-17 -7,-7 -12,-14 -15,-22 -3,-9 -5,-17 -5,-26 0,-20 6,-36 17,-48 11,-12 34,-24 67,-36l14 -5z"
   id="glyph30" />
   <glyph
   unicode="p"
   horiz-adv-x="523"
   d="M272 436c-30,0 -55,-8 -75,-25 -20,-16 -33,-39 -39,-70 -3,-11 -4,-25 -4,-41 -1,-17 -1,-34 -1,-51 0,-18 0,-35 1,-51 1,-15 2,-29 4,-40 6,-30 19,-53 39,-71 20,-16 45,-25 75,-25 30,0 55,8 75,25 20,17 33,40 39,70 3,11 4,25 5,41 1,16 1,33 1,51 0,17 0,34 -1,51 -1,16 -2,30 -5,43 -6,29 -19,52 -39,68 -20,17 -45,25 -75,25zm9 -446c-33,0 -59,5 -79,15 -21,11 -37,25 -49,44l0 -235 -76 0 0 683 68 0 7 -61c13,21 31,39 53,52 22,13 50,20 85,20 46,0 83,-13 111,-39 29,-26 48,-60 58,-101 4,-17 7,-35 8,-52 1,-17 1,-40 1,-67 0,-28 0,-51 -1,-68 -1,-16 -4,-34 -8,-51 -10,-41 -30,-75 -61,-101 -30,-26 -69,-39 -117,-39z"
   id="glyph32" />
   <glyph
   unicode="N"
   horiz-adv-x="617"
   d="M398 248c14,-28 27,-54 38,-79 12,-24 20,-43 23,-56l4 1c-4,15 -6,36 -7,63 -1,26 -1,54 -1,85l0 391 80 0 0 -653 -97 0 -218 405c-15,27 -28,53 -39,77 -11,25 -19,44 -22,57l-4 -1c4,-15 6,-36 7,-62 1,-26 1,-54 1,-85l0 -391 -80 0 0 653 97 0 218 -405z"
   id="glyph34" />
   <glyph
   unicode="m"
   horiz-adv-x="751"
   d="M153 0l-76 0 0 497 64 0 6 -51c16,23 35,39 57,48 21,10 43,14 66,14 23,0 45,-5 67,-16 21,-11 40,-28 55,-53 17,25 38,43 63,54 25,10 47,15 68,15 23,0 45,-4 64,-12 19,-8 36,-19 50,-33 13,-13 24,-29 31,-48 7,-18 11,-38 11,-59l0 -356 -77 0 0 342c0,30 -9,53 -26,69 -18,16 -40,24 -67,24 -26,0 -48,-8 -66,-24 -18,-16 -27,-39 -27,-69l0 -342 -76 0 0 342c0,30 -9,53 -27,69 -18,16 -40,24 -67,24 -26,0 -48,-8 -66,-24 -18,-16 -27,-39 -27,-69l0 -342z"
   id="glyph36" />
   <glyph
   unicode="g"
   horiz-adv-x="518"
   d="M251 218c23,0 42,2 57,6 19,5 34,17 45,36 11,18 17,40 17,67 0,29 -6,52 -17,70 -11,18 -27,30 -46,35 -14,4 -33,6 -56,6 -13,0 -23,0 -33,-1 -9,-1 -17,-2 -25,-5 -19,-7 -35,-19 -46,-36 -11,-18 -16,-41 -16,-69 0,-27 5,-49 16,-67 11,-18 27,-30 46,-35 8,-2 16,-4 25,-5 10,-1 20,-2 33,-2zm73 -399c-11,-3 -23,-5 -34,-7 -11,-1 -28,-1 -49,-1 -21,0 -37,0 -48,1 -12,2 -24,4 -35,7 -26,7 -48,22 -64,44 -18,22 -26,48 -26,79 0,22 5,42 14,58 9,17 22,31 37,42 -9,8 -15,18 -21,29 -4,11 -7,24 -7,39 0,15 3,29 9,41 6,12 14,22 24,29 -21,15 -37,36 -50,61 -13,24 -19,54 -19,88 0,44 10,80 31,108 21,29 46,48 76,58 8,3 15,5 21,7 6,1 12,3 19,4 6,0 13,1 20,1 8,1 18,1 29,1 21,0 37,-1 48,-2 10,-2 21,-5 33,-9l164 0 0 -69 -76 0c8,-14 14,-30 19,-46 5,-18 7,-36 7,-55 0,-44 -11,-81 -32,-110 -21,-29 -48,-49 -79,-58 -13,-4 -25,-7 -36,-9 -11,-1 -27,-2 -48,-2 -13,0 -25,0 -34,0 -9,0 -17,-1 -22,-2 -19,-4 -29,-16 -29,-37 0,-9 2,-17 7,-25 5,-7 12,-11 22,-13 5,-1 11,-2 21,-2 9,-1 17,-1 25,-1 21,0 38,0 49,-1 11,-2 23,-4 34,-7 27,-7 49,-22 65,-43 17,-20 25,-46 25,-77 0,-31 -8,-57 -25,-78 -17,-21 -38,-36 -65,-43zm-83 61c11,0 22,0 32,0 9,1 17,2 23,3 15,3 26,10 33,21 7,10 11,22 11,37 0,31 -15,50 -44,57 -6,1 -14,2 -23,3 -10,1 -21,1 -32,1 -11,0 -21,0 -31,-1 -9,-1 -17,-2 -23,-3 -30,-7 -45,-26 -45,-57 0,-15 4,-27 12,-37 7,-11 18,-18 33,-21 6,-1 14,-2 23,-3 10,0 20,0 31,0z"
   id="glyph38" />
   <glyph
   unicode="V"
   horiz-adv-x="557"
   d="M231 0l-156 423c-10,27 -18,57 -24,90 -5,32 -8,61 -8,86l0 54 80 0 0 -54c0,-20 2,-45 8,-73 4,-30 11,-57 20,-82l99 -282c7,-19 13,-37 18,-54 5,-17 8,-29 9,-37l5 0c0,8 3,20 8,37 5,17 11,35 18,54l100 282c4,12 8,25 11,39 3,14 6,28 8,42 3,14 5,27 6,40 1,13 2,24 2,34l0 54 80 0 0 -54c0,-25 -3,-54 -9,-86 -5,-33 -13,-63 -23,-90l-156 -423 -96 0z"
   id="glyph40" />
   <glyph
   unicode="d"
   horiz-adv-x="525"
   d="M253 62c30,0 55,9 74,25 19,18 32,41 38,71 3,11 4,25 5,40 1,16 1,33 1,51 0,17 0,34 -1,51 -1,16 -2,30 -5,42 -6,30 -19,53 -38,69 -19,17 -44,25 -74,25 -31,0 -56,-8 -76,-24 -20,-16 -33,-39 -38,-69 -2,-13 -4,-27 -5,-43 -1,-17 -1,-34 -1,-51 0,-18 0,-35 1,-51 1,-16 3,-30 5,-41 5,-30 18,-53 38,-70 20,-17 45,-25 76,-25zm120 -5c-13,-21 -29,-37 -49,-49 -21,-12 -48,-18 -81,-18 -48,0 -87,13 -118,39 -30,26 -50,60 -60,101 -4,17 -6,35 -7,51 -1,17 -2,40 -2,68 0,27 1,50 2,67 1,17 4,34 7,51 5,20 12,39 23,56 11,17 25,32 41,45 15,13 33,23 52,29 19,8 40,11 62,11 33,0 59,-5 79,-15 20,-11 36,-25 49,-43l0 234 77 0 0 -684 -68 0 -7 57z"
   id="glyph42" />
   <glyph
   unicode="S"
   horiz-adv-x="488"
   d="M233 -10c-24,0 -46,3 -67,9 -21,6 -39,14 -56,25 -16,10 -30,22 -42,35 -12,13 -22,27 -30,42l60 52c11,-25 30,-46 56,-62 25,-17 55,-25 89,-25 35,0 61,9 81,26 18,17 28,41 28,71 0,25 -8,46 -25,63 -16,17 -36,31 -60,42l-74 34c-44,21 -77,45 -98,73 -21,28 -32,63 -32,105 0,27 5,51 13,74 9,23 22,42 39,58 16,16 35,28 58,38 23,9 48,13 75,13 27,0 51,-4 74,-12 22,-8 41,-20 57,-37 17,-16 30,-36 39,-61 9,-25 14,-53 14,-86l0 -10 -79 0 0 13c0,16 -2,31 -6,46 -4,14 -10,26 -19,37 -8,11 -19,19 -32,25 -14,7 -31,10 -51,10 -34,0 -60,-9 -76,-26 -17,-18 -26,-43 -26,-75 0,-10 1,-20 3,-29 2,-10 6,-20 11,-28 6,-9 14,-18 24,-27 11,-9 24,-17 41,-25l87 -41c44,-21 76,-45 94,-72 19,-27 29,-59 29,-94 0,-57 -18,-102 -53,-134 -35,-31 -84,-47 -146,-47z"
   id="glyph44" />
   <glyph
   unicode="B"
   horiz-adv-x="526"
   d="M83 0l0 653 195 0c28,0 54,-4 76,-14 23,-9 43,-21 59,-37 17,-16 29,-35 38,-58 9,-23 13,-48 13,-75 0,-27 -6,-53 -18,-78 -13,-24 -32,-44 -59,-61 30,-17 52,-38 66,-64 14,-26 21,-54 21,-84 0,-27 -4,-52 -13,-74 -9,-23 -21,-42 -37,-58 -15,-16 -34,-28 -56,-37 -23,-9 -47,-13 -74,-13l-211 0zm80 578l0 -219 107 0c35,0 62,10 82,29 21,20 31,47 31,81 0,34 -10,61 -31,80 -20,19 -47,29 -82,29l-107 0zm0 -292l0 -209 123 0c32,0 58,9 77,28 19,19 29,44 29,77 0,32 -10,57 -29,76 -19,19 -45,28 -77,28l-123 0z"
   id="glyph46" />
   <glyph
   unicode="u"
   horiz-adv-x="517"
   d="M369 58c-13,-21 -31,-37 -54,-49 -23,-13 -50,-19 -82,-19 -24,0 -46,4 -65,12 -20,8 -37,19 -51,34 -14,14 -25,31 -33,51 -7,21 -11,44 -11,69l0 341 76 0 0 -324c0,-35 9,-61 27,-80 18,-19 45,-28 80,-28 30,0 55,9 76,28 21,19 31,45 31,79l0 325 77 0 0 -497 -64 0 -7 58z"
   id="glyph48" />
   <glyph
   unicode=" "
   horiz-adv-x="223"
   d=""
   id="glyph50" />
   <glyph
   unicode="P"
   horiz-adv-x="519"
   d="M249 301c48,0 86,12 112,36 27,25 41,59 41,103 0,43 -14,76 -41,101 -26,25 -64,37 -112,37l-86 0 0 -277 86 0zm-166 352l168 0c74,0 131,-19 171,-56 40,-38 60,-90 60,-157 0,-67 -21,-119 -61,-156 -42,-37 -99,-56 -172,-56l-86 0 0 -228 -80 0 0 653z"
   id="glyph52" />
   <glyph
   unicode="a"
   horiz-adv-x="468"
   d="M222 66c9,0 19,0 28,1 9,0 17,1 24,2 14,3 25,11 34,23 8,12 12,27 12,44 0,18 -4,33 -12,45 -9,11 -20,19 -34,22 -4,1 -10,2 -20,2 -9,0 -19,0 -32,0 -12,0 -23,0 -32,0 -9,0 -16,-1 -21,-2 -31,-7 -46,-30 -46,-67 0,-17 4,-32 11,-44 8,-12 20,-20 35,-23 5,-1 13,-2 24,-2 10,-1 20,-1 29,-1zm58 -62c-11,-3 -21,-6 -32,-7 -11,-1 -25,-2 -42,-2 -17,0 -30,1 -40,2 -11,1 -21,3 -32,6 -25,7 -47,23 -63,46 -18,23 -26,53 -26,88 0,34 8,62 26,84 16,22 38,37 63,44 11,3 23,6 36,7 13,1 29,2 46,2 17,0 31,-1 40,-2 10,-1 21,-4 32,-8 7,-3 13,-5 17,-8 6,-3 10,-6 14,-11l0 96c0,31 -9,54 -27,71 -17,17 -41,25 -71,25 -25,0 -47,-6 -64,-18 -17,-13 -30,-29 -39,-48l-59 41c15,29 36,53 61,70 25,17 61,26 107,26 27,0 50,-4 72,-13 21,-8 38,-19 52,-34 15,-15 26,-32 33,-51 7,-19 11,-40 11,-62l0 -348 -64 0 -5 41c-11,-18 -26,-30 -46,-37z"
   id="glyph54" />
   <glyph
   unicode="r"
   horiz-adv-x="332"
   d="M153 0l-76 0 0 497 64 0 7 -61c33,47 76,70 131,70 5,0 10,0 14,0 4,0 8,0 12,-1l0 -81c-7,2 -15,3 -23,4 -8,1 -16,1 -25,1 -29,0 -54,-9 -74,-29 -20,-18 -30,-47 -30,-86l0 -314z"
   id="glyph56" />
   <glyph
   unicode="o"
   horiz-adv-x="505"
   d="M253 60c30,0 55,8 74,25 20,17 33,40 39,71 3,11 4,25 5,41 1,17 1,34 1,52 0,17 0,35 -1,52 -1,16 -3,31 -5,43 -5,30 -18,53 -38,69 -20,17 -45,25 -75,25 -31,0 -56,-8 -76,-25 -21,-17 -34,-40 -39,-70 -2,-11 -3,-26 -4,-42 -1,-17 -1,-35 -1,-52 0,-18 0,-35 1,-51 1,-16 2,-30 4,-41 5,-30 18,-54 39,-71 20,-17 45,-26 76,-26zm-2 -70c-49,0 -89,13 -122,39 -33,26 -54,60 -64,102 -4,17 -6,34 -7,50 -1,17 -2,40 -2,68 0,27 1,50 2,68 1,18 4,35 7,50 10,42 32,76 66,102 33,26 74,39 123,39 49,0 89,-13 121,-38 33,-26 54,-60 64,-103 4,-17 7,-34 8,-51 1,-17 2,-40 2,-67 0,-28 -1,-51 -2,-68 -1,-16 -4,-33 -8,-50 -10,-42 -32,-76 -66,-102 -33,-26 -74,-39 -122,-39z"
   id="glyph58" />
   <glyph
   unicode="l"
   horiz-adv-x="263"
   d="M153 120c0,-5 0,-11 1,-16 1,-5 2,-10 5,-15 3,-6 10,-11 19,-15 8,-4 20,-6 33,-6 8,0 14,0 19,1 5,1 9,2 12,3l0 -72c-5,-1 -12,-2 -18,-3 -7,-1 -16,-2 -26,-2 -33,0 -58,6 -76,18 -17,13 -30,29 -38,50 -3,8 -5,18 -6,29 -1,11 -2,21 -2,28l0 564 77 0 0 -564z"
   id="glyph60" />
   <glyph
   unicode="z"
   horiz-adv-x="422"
   d="M49 72c0,17 2,32 8,45 4,13 15,30 32,49l178 202c9,10 15,19 20,28 4,8 6,19 6,32l-238 0 0 69 315 0 0 -69c0,-15 -3,-30 -9,-45 -5,-15 -17,-33 -34,-52l-174 -196c-9,-9 -15,-19 -20,-29 -5,-10 -7,-22 -7,-35l247 0 0 -71 -324 0 0 72z"
   id="glyph62" />
   <glyph
   unicode="i"
   horiz-adv-x="230"
   d="M77 0l0 497 77 0 0 -497 -77 0zm39 571c-15,0 -28,6 -39,17 -11,11 -16,23 -16,38 0,15 5,28 16,39 11,11 24,16 39,16 15,0 28,-5 39,-16 11,-11 16,-24 16,-39 0,-15 -5,-27 -16,-38 -11,-11 -24,-17 -39,-17z"
   id="glyph64" />
  </font>
</defs>
</svg>
